<?xml version="1.0" encoding="UTF-8"?>
<!DOCTYPE svg PUBLIC "-//W3C//DTD SVG 1.1//EN" "http://www.w3.org/Graphics/SVG/1.1/DTD/svg11.dtd">
<!-- Creator: CorelDRAW 2018 (64-Bit) -->
<svg xmlns="http://www.w3.org/2000/svg" xml:space="preserve" width="71.9666mm" height="25.4mm" version="1.1" style="shape-rendering:geometricPrecision; text-rendering:geometricPrecision; image-rendering:optimizeQuality; fill-rule:evenodd; clip-rule:evenodd"
viewBox="0 0 7196.66 2540"
 xmlns:xlink="http://www.w3.org/1999/xlink">
 <defs>
  <style type="text/css">
   <![CDATA[
    .fil0 {fill:white}
    .fil1 {fill:white}
    .fil2 {fill:white;fill-rule:nonzero}
   ]]>
  </style>
 </defs>
 <g id="Слой_x0020_1">
  <metadata id="CorelCorpID_0Corel-Layer"/>
  <path class="fil0" d="M1080.82 2257.28c0.12,282.72 -0.02,235.45 0.12,282.72l105.23 -0.09c0,-282.24 0,-265.16 0,-282.24 251.97,144.69 226.37,130.03 252.13,144.78l0 -127.74 -252.13 -144.79 0 -124.01 252.13 144.79 0 -118.54c-252.13,-144.79 0,0 -252.13,-144.79l0 -245.32c150.6,86.48 0,0 150.6,86.48l0 117.6 101.53 58.3 0 -117.6 97.96 56.26 0 -125.37 -97.96 -56.25 0 -156.72c205.68,118.11 0,0 205.68,118.11l0 282.09c112.42,64.56 9.92,5.7 112.42,64.56l0 -282.09 104.38 59.94 0 282.09c76.17,43.74 0,0 108.7,62.42l0 -282.09c217.81,125.08 0,0 248.29,142.59l52.1 -91.6c-249.29,-143.16 0,0 -249.29,-143.16 248.43,-142.66 0,0 248.43,-142.66 -108.63,-62.38 0,0 -108.63,-62.38l-248.42 142.66c-107.98,-62 0,0 -107.98,-62 248.43,-142.66 0,0 248.43,-142.66 -103.21,-59.27 -1.11,-0.64 -103.21,-59.27 -248.43,142.66 0,0 -248.43,142.66 -17.61,-10.11 -148.38,-85.21 -214.19,-123 144.39,-82.95 121.09,-69.81 144.89,-83.21 102.98,59.14 0,0 102.98,59.14 107.5,-61.53 -3.96,2.08 103.54,-59.46 -102.98,-59.13 -4.49,-2.69 -102.08,-58.61 98.16,-57.44 -2.15,0.19 96.58,-56.5 -108.29,-62.19 0,0 -108.29,-62.19l-97.48 55.98c-137.28,-78.73 0.55,0.21 -136.74,-78.52 23.33,-13.4 176.28,-101.23 203.67,-116.96 50.15,28.8 194.92,111.94 245.03,140.71 15.04,-8.52 86.85,-49.88 110.79,-63.63l-245.02 -140.71c25.99,-14.92 81.69,-46.91 105.84,-60.78 80.12,46.01 162.57,93.36 245.23,140.59 17.55,-10.08 83.52,-47.96 106.02,-60.88l-245.02 -140.71c83.48,-47.94 178.19,-102.33 250.85,-144.05l-52.47 -91.39 -245.3 140.87 -0.12 -285.25 -108.7 62.42 -0.17 285.42 -104.21 59.84 0 -285.32c-14.94,8.58 -61.3,35.21 -112.42,64.56l0 285.32c-50.9,29.23 -167.31,96.08 -205.68,118.11l0 -166.4 97.96 -56.26 0 -118.91 -97.59 56.04 -0.37 -111.74c-101.53,58.23 0,0 -101.53,58.23l0 112.02c-150.6,86.49 0,0 -150.6,86.49l0 -233.64c252.13,-144.79 0,0 252.13,-144.79l0 -127.53c-252.13,144.79 0,0 -252.13,144.79l0 -121.56 252.13 -144.79 0 -122.01c-252.13,144.79 0,0 -252.13,144.79l0 -287.47 -105.38 0.06 0 284.8c-242.88,-139.48 0,0 -242.88,-139.48l1.55 122.12 241.33 139.37 0 121.56c-242.88,-139.48 0,0 -242.88,-139.48l0 127.25 242.88 139.48 0 233.92c-140.74,-80.83 0,0 -140.74,-80.83l0 -111.95c-102.14,-58.66 0,0 -102.14,-58.66l0 111.96 -100.99 -57.99 0 118.91c100.99,58 0,0 100.99,58l0 166.4c-208.61,-119.8 0,0 -208.61,-119.8l0 -285.32 -107.92 -61.97 -0.1 285.26c-109.84,-63.07 0,0 -109.84,-63.07l0 -285.33c-105.88,-60.8 0,0 -105.88,-60.8l0 285.32c-248.99,-142.98 0,0 -248.99,-142.98 -51.87,91.73 0,0 -51.99,91.66l250.41 143.8c-245.61,141.04 0,0 -245.61,141.04 106.23,61.01 0,0 106.23,61.01l245.61 -141.05c105.84,60.78 0,0 105.84,60.78 -245.61,141.05 -223.42,130.56 -245.53,141.09 110.96,63.72 0,0 110.96,63.72 245.61,-141.04 0,0 245.61,-141.04 203.43,116.82 0,0 203.43,116.82 -136.46,78.36 -114.96,65.95 -136.46,78.36 -97.48,-55.98 0.31,-0.17 -97.48,-55.98 -109.15,62.69 0,0 -109.15,62.69 97.48,55.97 0,0 97.48,55.97 -102.36,58.78 0,0 -102.39,58.8 103.53,59.46 0,0 103.53,59.46 102.39,-58.8 0,0 102.39,-58.8 1.17,0.07 0,0 144.89,83.2l-213.6 122.67c-248.42,-142.66 0,0 -248.42,-142.66 -103.22,59.27 0,0 -103.22,59.27 248.43,142.66 0,0 248.43,142.66 -107.98,62 0,0 -107.98,62l-248.42 -142.66c-110.34,63.35 -0.72,0.63 -111.05,63.98 248.25,142.55 0,0 248.25,142.55l-245.4 140.93c52.97,91.1 -0.44,0.25 52.97,91.1l249.66 -143.37 0 281.41 105.81 -60.76 0.07 -281.45 109.84 -63.08 0 281.41 108.02 -62.03 0 -281.41 208.61 -119.8 0 157.04 -100.99 58 0 124.36c100.99,-57.99 0,0 100.99,-57.99l0 118.28 102.14 -58.66 0 -118.27 140.74 -80.82 0 245.99 -242.88 139.48 0 118.54 242.88 -139.47 0.17 123.91c-243.05,139.57 -241.64,137.68 -243.05,139.57l0 124.76 242.91 -139.49z"/>
  <polygon class="fil1" points="885.06,1187.05 1029.95,1270.25 893.5,1348.61 748.61,1265.41 "/>
  <polygon class="fil1" points="1386.44,1187.05 1523.18,1265.57 1378.29,1348.77 1241.56,1270.25 "/>
  <polygon class="fil1" points="940.05,1443.39 1080.79,1362.57 1080.79,1519.62 940.05,1600.44 "/>
  <polygon class="fil1" points="1336.77,1094.06 1186.17,1180.54 1186.17,1014.14 1336.77,927.65 "/>
  <polygon class="fil1" points="940.05,1097.11 1080.95,1178.02 1080.79,1011.52 940.05,930.7 "/>
  <polygon class="fil1" points="1336.77,1446.45 1186.17,1359.96 1186.17,1516.68 1336.77,1603.16 "/>
  <path class="fil2" d="M2979.84 1495.67l-73.34 0 0 206.86 -270.45 0 0 -822.73 386.17 0c74.13,0 138.67,12.52 193.69,37.59 54.99,25.08 97.4,61.13 127.19,108.14 29.79,47.01 44.71,101.87 44.71,164.54 0,58.78 -13,110.11 -38.97,153.99 -25.98,43.88 -63.43,78.74 -112.31,104.6l168.45 253.87 -288.78 0 -136.36 -206.86zm135.22 -305.6c0,-30.55 -9.16,-54.25 -27.51,-71.11 -18.34,-16.84 -45.83,-25.26 -82.5,-25.26l-98.55 0 0 192.77 98.55 0c36.67,0 64.16,-8.45 82.5,-25.29 18.35,-16.84 27.51,-40.54 27.51,-71.11zm1033.61 190.42c0,3.91 -1.16,24.67 -3.43,62.29l-435.47 0c9.18,24.28 24.48,42.9 45.85,55.83 21.37,12.93 48.13,19.38 80.22,19.38 27.49,0 50.62,-3.51 69.33,-10.58 18.69,-7.04 39.14,-19.19 61.29,-36.43l135.23 139.87c-61.13,68.95 -152.4,103.44 -273.89,103.44 -75.62,0 -142.08,-14.3 -199.38,-42.91 -57.29,-28.6 -101.59,-68.36 -132.93,-119.31 -31.31,-50.92 -46.96,-108.11 -46.96,-171.58 0,-64.26 15.46,-121.66 46.39,-172.2 30.93,-50.53 73.34,-89.9 127.21,-118.13 53.87,-28.2 114.4,-42.29 181.62,-42.29 63.42,0 121.28,12.93 173.6,38.78 52.35,25.86 93.98,63.86 124.91,114 30.95,50.17 46.41,110.1 46.41,179.84zm-342.62 -151.61c-26.73,0 -48.89,7.42 -66.46,22.32 -17.58,14.89 -29.06,36.05 -34.39,63.47l201.68 0c-5.34,-26.64 -16.79,-47.61 -34.37,-62.88 -17.57,-15.28 -39.73,-22.91 -66.46,-22.91zm703.56 -133.99l136.39 0 0 193.92 -128.35 0 0 413.72 -258.99 0 0 -413.72 -85.93 0 0 -193.92 85.93 0 0 -3.54c0,-83.85 24.48,-150.24 73.36,-199.22 48.89,-48.98 117.63,-73.46 206.24,-73.46 29.04,0 57.31,2.76 84.82,8.23 27.49,5.48 50.41,13.31 68.74,23.51l-61.88 184.51c-21.4,-10.17 -40.87,-15.27 -58.45,-15.27 -19.09,0 -34.18,6.07 -45.25,18.21 -11.08,12.15 -16.63,30.77 -16.63,55.84l0 1.19zm631.41 626.44c-84.8,0 -161.2,-18.21 -229.18,-54.64 -67.98,-36.44 -121.27,-87.39 -159.87,-152.8 -38.56,-65.42 -57.85,-139.69 -57.85,-222.73 0,-83.06 19.29,-157.3 57.85,-222.72 38.6,-65.44 91.89,-116.37 159.87,-152.8 67.98,-36.43 144.38,-54.65 229.18,-54.65 77.94,0 147.44,14.09 208.56,42.31 61.13,28.21 111.55,68.96 151.28,122.23l-170.78 156.31c-49.64,-64.23 -108.09,-96.37 -175.31,-96.37 -56.54,0 -101.96,18.62 -136.36,55.83 -34.37,37.22 -51.56,87.17 -51.56,149.86 0,62.69 17.19,112.64 51.56,149.86 34.4,37.22 79.82,55.81 136.36,55.81 67.22,0 125.67,-32.11 175.31,-96.37l170.78 156.33c-39.73,53.28 -90.15,94.03 -151.28,122.23 -61.12,28.2 -130.62,42.31 -208.56,42.31zm710.48 -673.46c110.01,0 194.05,25.26 252.09,75.81 58.07,50.52 87.1,128.3 87.1,233.3l0 345.55 -240.66 0 0 -84.64c-29.76,64.26 -88.97,96.4 -177.58,96.4 -49.69,0 -91.89,-8.82 -126.64,-26.45 -34.77,-17.64 -61.12,-41.53 -79.08,-71.7 -17.93,-30.17 -26.92,-64.07 -26.92,-101.66 0,-63.47 23.69,-111.67 71.06,-144.57 47.35,-32.92 119.17,-49.36 215.42,-49.36l104.29 0c-8.39,-50.17 -47.77,-75.24 -118.05,-75.24 -28.25,0 -56.9,4.51 -85.93,13.52 -29.03,9.02 -53.84,21.35 -74.48,37.03l-82.52 -175.12c35.91,-22.72 79.25,-40.56 130.05,-53.49 50.81,-12.92 101.45,-19.38 151.85,-19.38zm-1.16 506.55c18.34,0 34.77,-5.07 49.29,-15.27 14.52,-10.18 25.21,-25.45 32.07,-45.83l0 -44.66 -64.14 0c-52.73,0 -79.1,18.02 -79.1,54.05 0,14.9 5.55,27.23 16.63,37.03 11.07,9.8 26.16,14.68 45.25,14.68zm699.03 -425.45c45.83,-54.08 113.45,-81.1 202.83,-81.1l0 235.06c-20.62,-3.13 -39.73,-4.7 -57.31,-4.7 -88.62,0 -132.92,46.23 -132.92,138.69l0 285.61 -258.97 0 0 -642.92 246.37 0 0 69.36z"/>
 </g>
</svg>
