<?xml version="1.0" encoding="UTF-8" standalone="no"?>
<!-- Created with Inkscape (http://www.inkscape.org/) -->
<svg xmlns:dc="http://purl.org/dc/elements/1.1/" xmlns:cc="http://creativecommons.org/ns#" xmlns:rdf="http://www.w3.org/1999/02/22-rdf-syntax-ns#" xmlns:svg="http://www.w3.org/2000/svg" xmlns="http://www.w3.org/2000/svg" xmlns:sodipodi="http://sodipodi.sourceforge.net/DTD/sodipodi-0.dtd" xmlns:inkscape="http://www.inkscape.org/namespaces/inkscape" id="svg2" sodipodi:version="0.32" inkscape:version="0.46" width="326" height="100" version="1.0" sodipodi:docname="ashokleylandlogo.svg" inkscape:output_extension="org.inkscape.output.svg.inkscape">
  <metadata id="metadata7">
    <rdf:RDF>
      <cc:Work rdf:about="">
        <dc:format>image/svg+xml</dc:format>
        <dc:type rdf:resource="http://purl.org/dc/dcmitype/StillImage"/>
      </cc:Work>
    </rdf:RDF>
  </metadata>
  <defs id="defs5">
    <inkscape:perspective sodipodi:type="inkscape:persp3d" inkscape:vp_x="0 : 526.18109 : 1" inkscape:vp_y="0 : 1000 : 0" inkscape:vp_z="744.09448 : 526.18109 : 1" inkscape:persp3d-origin="372.04724 : 350.78739 : 1" id="perspective9"/>
  </defs>
  <sodipodi:namedview inkscape:window-height="764" inkscape:window-width="947" inkscape:pageshadow="2" inkscape:pageopacity="0.0" guidetolerance="10.0" gridtolerance="10.0" objecttolerance="10.0" borderopacity="1.0" bordercolor="#666666" pagecolor="#ffffff" id="base" showgrid="false" inkscape:zoom="2.3497702" inkscape:cx="139.18978" inkscape:cy="91.441004" inkscape:window-x="558" inkscape:window-y="244" inkscape:current-layer="svg2"/>
  <path style="fill: rgb(00, 00, 00);" d="M 162.91466,1.257259 C 150.92115,1.613889 139.90911,8.2883509 134.44591,19.41351 C 130.77424,26.890456 130.47952,38.54799 133.78966,45.75726 C 138.23439,55.4376 147.90228,62.941229 158.07091,64.60101 C 182.5134,68.590653 202.55978,44.954111 194.10216,22.13226 C 191.10122,14.034596 182.73583,5.6647909 175.07091,3.1010109 C 171.02949,1.749229 166.9125,1.138379 162.91466,1.257259 z M 162.66466,4.8822609 C 164.51671,4.9511909 164.82899,5.6647309 162.82091,6.7885109 C 159.03553,8.9069209 153.94671,14.06163 151.41466,18.38226 C 149.96539,20.855246 148.26544,25.20097 147.63341,28.00726 L 146.47716,33.10101 L 144.88341,30.60101 C 142.63664,27.137166 140.78722,19.16147 141.53966,16.16351 C 142.39587,12.75214 151.20298,6.9570509 157.82091,5.4760109 C 159.8636,5.0188809 161.55343,4.8409009 162.66466,4.8822609 z M 179.97716,10.97601 C 181.37031,11.03737 182.46102,11.84048 184.35216,13.85101 C 186.0519,15.658046 188.52736,19.47379 189.85216,22.35101 C 191.22058,25.322946 192.12472,28.91388 191.94591,30.66351 L 191.63341,33.75726 L 187.72716,29.06976 C 182.90915,23.286886 176.5591,19.16499 170.03966,17.60101 C 162.61788,15.820546 165.03059,13.952648 178.44591,11.13226 C 179.02024,11.01151 179.51277,10.95556 179.97716,10.97601 z M 163.50841,19.00726 C 170.4671,18.771956 178.13341,25.917805 178.13341,33.13226 C 178.13342,37.668681 174.92055,42.839409 170.53966,45.35101 C 165.77781,48.081022 161.72628,48.197913 157.13341,45.75726 C 144.44997,39.017271 147.6811,21.81235 162.13341,19.16351 C 162.5886,19.080076 163.04449,19.02295 163.50841,19.00726 z M 158.35216,23.66351 L 157.97716,25.06976 L 160.25841,25.06976 L 156.47716,37.47601 L 155.88688,38.162353 L 154.73237,38.35969 L 153.6635,40.625894 L 171.66466,40.66351 L 174.91466,32.81976 L 172.72716,32.85101 L 172.00841,35.13226 C 172.00841,35.13226 171.25247,37.304957 170.54431,37.773243 C 169.62657,38.380133 166.48645,38.192137 166.48646,38.192137 L 163.12542,38.134288 L 166.75841,25.28851 L 169.19591,25.25726 L 169.57091,23.69476 L 158.35216,23.66351 z M 135.13341,32.47601 L 140.28966,38.10101 C 145.694,44.014214 152.21651,47.994865 158.44591,49.16351 C 160.47804,49.54474 162.13341,50.203186 162.13341,50.63226 C 162.13342,51.061332 160.35614,52.130402 158.16466,53.00726 C 151.03678,55.859276 146.94365,56.05279 143.94591,53.69476 C 140.43081,50.92978 135.13341,40.21857 135.13341,35.88226 L 135.13341,32.47601 z M 180.72716,34.56976 C 182.04796,34.417561 185.14863,40.95601 185.82091,46.63226 C 186.35182,51.114952 186.24077,51.364919 182.35216,54.44476 C 180.13564,56.200283 176.81317,58.282839 174.97716,59.03851 C 173.14116,59.79418 169.68225,60.706821 167.28966,61.10101 L 162.94591,61.81976 L 169.88341,54.97601 C 176.61312,48.330126 180.13341,41.956056 180.13341,36.44476 C 180.13342,35.192301 180.35734,34.61238 180.72716,34.56976 z M 35.695902,79.31976 L 33.164652,79.91351 C 33.164652,79.91351 31.643177,80.367412 31.102152,80.97601 C 30.565975,81.579151 29.977153,83.19476 29.977152,83.19476 C 29.977152,83.19476 29.247716,85.016076 29.320902,85.81976 C 29.390061,86.579241 30.210622,88.444268 30.539652,89.13226 C 30.967005,90.02584 32.238677,91.116459 33.102152,91.13226 C 38.101051,91.223736 46.445903,91.31976 46.445902,91.31976 C 46.445902,91.31976 46.946156,91.672293 47.102152,91.88226 C 47.283943,92.126945 47.475653,92.507241 47.508402,92.78851 C 47.551902,93.162121 47.387865,93.74185 47.258402,93.97601 C 47.076409,94.305185 46.445903,94.66351 46.445902,94.66351 L 29.570902,94.66351 L 29.570902,95.47601 C 29.570902,95.91601 29.845715,96.950886 30.570902,97.53851 C 30.570902,97.53851 31.441246,98.672111 31.977152,98.66351 C 31.977152,98.66351 45.040143,98.762056 50.852152,98.63226 C 51.330984,98.621567 51.673867,98.112052 52.015057,97.67682 C 52.329158,97.276145 52.594823,96.540123 52.789652,96.06976 C 53.057005,93.931488 53.176772,91.572678 52.664652,89.47601 C 52.451207,89.083617 52.195904,88.093716 51.820902,87.85101 C 51.445902,87.608305 50.705856,87.139166 50.320902,87.13226 C 50.320902,87.13226 40.101998,87.080012 35.914652,87.06976 C 35.394393,87.068486 35.525088,85.895179 35.545439,85.375316 C 35.566803,84.829573 35.524856,83.643488 36.070902,83.63226 C 40.868986,83.535144 52.570902,83.60101 52.570902,83.60101 L 52.570902,82.10101 C 52.570902,82.10101 52.181043,81.109851 51.789652,80.72601 C 51.372778,80.317174 50.390434,79.858493 49.852152,79.63226 C 49.09319,79.313273 47.445903,79.31976 47.445902,79.31976 L 35.695902,79.31976 z M 56.570902,79.31976 L 56.570902,98.66351 L 62.445902,98.66351 L 62.445902,91.35101 L 74.477152,91.35101 L 74.477152,98.66351 L 80.570902,98.66351 L 80.570902,79.31976 C 80.570902,79.31976 79.095867,79.530388 78.084212,79.738163 C 77.272134,79.904949 76.054041,80.306252 75.452268,80.876473 C 74.789578,81.504413 74.49567,83.238741 74.495671,83.238741 L 74.477152,86.72601 L 62.445902,86.72601 L 62.445902,83.47601 C 62.445902,83.47601 62.525607,81.207007 61.852152,80.47601 C 61.31529,79.893274 60.302153,79.789686 59.477152,79.69476 C 58.652152,79.599833 56.570903,79.319761 56.570902,79.31976 z M 148.57091,79.31976 L 148.57091,98.66351 L 167.57091,98.66351 L 167.57091,93.66351 L 154.07091,93.66351 C 154.13376,89.475168 154.15451,85.288479 154.07091,81.10101 C 153.37551,80.120305 152.82194,80.285494 151.99799,79.851009 C 151.18858,79.42419 148.57092,79.319761 148.57091,79.31976 z M 221.57091,79.75726 L 221.57091,98.66351 L 240.57091,98.66351 L 240.57091,93.66351 L 227.66466,93.66351 C 227.66466,93.66351 227.53673,89.391194 227.35216,81.44476 C 227.33032,80.513604 225.24687,79.951709 224.32091,79.85101 C 223.49533,79.761227 221.57092,79.757261 221.57091,79.75726 z M 87.477152,79.31976 C 86.811534,79.320732 85.308522,80.591617 84.883402,81.00726 C 84.483948,81.39781 83.672667,82.716689 83.664652,83.38226 C 83.570203,87.256973 83.563508,91.131696 83.570902,95.00726 C 83.573522,95.747184 84.261905,96.614888 84.758402,97.16351 C 85.254898,97.712132 86.143535,98.653745 86.883402,98.66351 C 93.226209,98.584394 99.573025,98.811393 105.91466,98.66351 C 106.65381,98.629626 107.55353,97.941256 108.10216,97.44476 C 108.65078,96.948263 109.52637,95.789979 109.53329,95.501473 C 109.58092,93.515647 109.57091,89.10101 109.57091,89.10101 C 109.57091,89.10101 109.60116,86.248046 109.50841,83.50726 C 109.48418,82.80518 109.03055,81.154405 108.57091,80.69476 C 108.11127,80.235117 107.0022,79.321476 106.35216,79.31976 C 101.38833,79.306647 93.432089,79.311066 87.477152,79.31976 z M 271.57091,79.63226 L 271.57091,98.66351 L 277.85216,98.66351 L 277.85216,84.81976 L 288.91466,98.66351 L 297.57091,98.66351 L 297.57091,79.66351 L 291.57091,79.66351 L 291.57091,92.69476 C 288.20263,88.429883 284.44057,84.536805 280.66204,80.642997 C 279.74877,79.706836 276.08075,79.676241 276.08075,79.676241 L 271.57091,79.63226 z M 251.94591,79.63226 L 241.47716,98.66351 L 244.91466,98.66351 L 248.35216,98.66351 L 250.35216,95.60101 L 261.32091,95.66351 L 263.35216,98.75726 L 269.72716,98.66351 L 269.41466,97.78851 C 266.44063,91.667429 263.19224,85.678964 260.07091,79.63226 L 251.94591,79.63226 z M 112.57091,79.31976 L 112.57091,89.16351 L 112.57091,98.66351 L 115.57091,98.66351 L 118.57091,98.66351 L 118.57091,95.16351 L 118.57091,91.66351 L 119.63341,91.66351 C 120.21641,91.66351 122.76857,93.23851 125.28966,95.16351 L 129.85216,98.66351 L 133.94591,98.66351 L 138.03966,98.66351 L 134.10216,95.41351 C 131.93824,93.62601 129.24116,91.439329 128.13341,90.53851 L 126.13341,88.88226 L 131.10216,84.31976 L 135.99567,79.31976 L 128.47137,79.31976 L 124.44591,83.16351 C 122.31517,85.08851 120.11932,86.66351 119.57091,86.66351 L 118.57091,86.66351 L 118.57091,83.16351 L 118.57091,79.31976 L 112.57091,79.31976 z M 300.57091,79.66351 L 300.57091,98.66351 C 307.68544,98.611058 314.80044,98.743565 321.91466,98.66351 C 322.69799,98.647009 323.67968,98.06666 324.25841,97.53851 C 324.82141,97.024727 325.55991,96.113126 325.57091,95.35101 C 325.56064,91.340799 325.60739,87.329908 325.57091,83.31976 C 325.55828,82.566261 324.88785,81.692128 324.38341,81.13226 C 323.86959,80.561992 323.04104,79.814396 322.27399,79.785484 L 300.57091,79.66351 z M 219.53966,79.75726 L 213.38341,79.75726 L 206.57091,86.56976 L 203.13341,83.03851 L 200.03966,79.75726 L 193.35216,79.75726 L 198.53966,86.13226 L 203.57091,92.06976 L 203.57091,98.66351 L 209.57091,98.66351 L 209.57091,92.06976 L 214.60216,85.66351 L 219.53966,79.75726 z M 191.57091,79.94476 C 191.57091,79.94476 178.97336,80.065306 173.44591,80.06976 C 173.01069,80.070111 171.95904,80.372187 171.63341,80.66351 C 171.25398,81.002967 170.59698,81.873169 170.60216,82.38226 L 170.57091,98.66351 L 181.07091,98.66351 L 191.57091,98.66351 L 191.57091,93.66351 L 176.57091,93.66351 L 176.57091,91.19013 L 191.57091,91.19013 L 191.57091,87.114899 L 176.57091,87.114899 L 176.57091,84.56976 L 191.57091,84.56976 L 191.57091,79.94476 z M 10.445903,79.31976 L 0.41465222,98.66351 L 6.8209022,98.69476 L 8.5084022,95.66351 L 20.133402,95.63226 C 20.839386,96.920847 21.169304,97.533218 21.852152,98.66351 L 28.977152,98.66351 L 19.039652,79.31976 L 10.445903,79.31976 z M 255.82091,84.31976 L 258.72716,90.66351 L 252.50841,90.66351 L 255.82091,84.31976 z M 14.764189,84.131103 L 17.758402,90.66351 L 11.227152,90.63226 C 12.537008,88.306427 13.037641,86.845258 14.764189,84.131103 z M 318.10216,84.53851 C 318.10216,84.53851 318.65009,84.864347 318.82091,85.06976 C 319.0221,85.311694 319.25842,86.00726 319.25841,86.00726 L 319.25841,92.72601 C 319.25841,92.72601 319.00273,93.158428 318.85216,93.31976 C 318.70373,93.478789 318.28966,93.757259 318.28966,93.75726 L 306.57091,93.75726 L 306.57091,84.56976 L 318.10216,84.53851 z M 92.758402,85.06976 C 95.664628,85.074039 98.570913,85.074089 101.47716,85.06976 C 102.41494,85.106525 102.71844,85.25386 102.88312,85.526646 C 103.06629,85.830074 103.11252,86.78426 103.10216,87.72601 C 103.08932,88.893185 103.07813,91.14438 103.0521,92.320917 C 103.0521,92.320917 103.07207,93.1248 102.87675,93.326126 C 102.68831,93.520363 101.59927,93.625894 101.59927,93.625894 L 92.147291,93.625894 C 90.11943,93.747355 90.004041,92.985507 89.889768,92.000605 C 89.881891,90.862968 89.883362,90.161848 89.914652,88.06976 C 89.967833,86.100976 89.688479,85.253581 91.222522,85.082202 C 91.744226,85.023919 91.943726,85.066253 92.758402,85.06976 z" id="path2400" sodipodi:nodetypes="csssssccsscccssccsscccssccssssccccccccccccsccccccccsssscccssscccscccscssscssscccccssccscsssccssscccccccccssccccsscccccccsccccccssccsccsccsscssscccccccccccccccccccccccccccccccccccccccccccccccccccsccsccccccccccccccccsscccccccccccccccccccccccccccccccsccsccccccsscsccccsc"/>
</svg>