<?xml version="1.0" encoding="UTF-8" standalone="no"?>
<svg
   xmlns:dc="http://purl.org/dc/elements/1.1/"
   xmlns:cc="http://creativecommons.org/ns#"
   xmlns:rdf="http://www.w3.org/1999/02/22-rdf-syntax-ns#"
   xmlns:svg="http://www.w3.org/2000/svg"
   xmlns="http://www.w3.org/2000/svg"
   viewBox="0 0 303.74667 231.60001"
   height="231.60001"
   width="303.74667"
   xml:space="preserve"
   id="svg2"
   version="1.1"><metadata
     id="metadata8"><rdf:RDF><cc:Work
         rdf:about=""><dc:format>image/svg+xml</dc:format><dc:type
           rdf:resource="http://purl.org/dc/dcmitype/StillImage" /></cc:Work></rdf:RDF></metadata><defs
     id="defs6" /><g
     transform="matrix(1.3333333,0,0,-1.3333333,0,231.6)"
     id="g10"><g
       transform="scale(0.1)"
       id="g12"><path
         id="path14"
         style="fill:#aa;fill-opacity:1;fill-rule:nonzero;stroke:none"
         d="m 1464.68,1102 c 57.01,-76.01 84,-152.012 83.01,-228.008 -92,-126.992 -211,-200.004 -355,-216.992 165.99,108.984 256.99,256.992 271.99,445 z m -342,-278.008 C 1064.68,767.996 980.684,737.996 869.684,733.988 727.68,847 658.684,977.996 662.68,1127 c 96.004,-180 249,-281.016 460,-303.008 z M 759.684,1443.99 c 117.996,123.01 244.996,182 383.006,175 -184.006,-105 -281.01,-258 -293.006,-460 -62.004,66 -92.004,161 -90,285 z m 677.006,80 c 120,-105.99 181,-220.99 186,-345 -100,156 -246,243.01 -440,260 59,57 144,86 254,85 z m -110,-205 c 51,-50 76,-110.99 76,-181.99 0,-71.01 -25,-132.01 -76,-183.008 -50,-50 -110,-75 -182.01,-75 -71,0 -132,25 -182,75 -50,50.998 -76,111.998 -76,183.008 0,71 26,131.99 76,181.99 50,51 111,76 182,76 72.01,0 132.01,-25 182.01,-76 z m 416,-180 c 0,165 -59.01,306 -176,423.01 -117.01,116.99 -258.01,175 -424,175 -166.01,0 -307.006,-58.01 -424.006,-175 -118,-117.01 -176.004,-258.01 -176.004,-423.01 0,-164.998 58.004,-304.998 176.004,-421.99 117,-117.012 257.996,-175 424.006,-175 165.99,0 306.99,57.988 424,175 116.99,116.992 176,256.992 176,421.99" /><path
         id="path16"
         style="fill:#aa;fill-opacity:1;fill-rule:nonzero;stroke:none"
         d="m 1336.69,1137 h -40 c -8.01,-72.01 -69,-104 -184.01,-96.01 l 41,191.01 c 1,26 9.01,42.99 23.01,48.99 16,2.01 25,14 26,33 h -180.01 l 2,-25.99 c 15,-1 20,-12.01 15,-35 l -28,-130 c -11,-71 -21.996,-106 -32.996,-105 -17.004,-1 -24,-10 -22.004,-29.008 h 348 L 1336.69,1137" /><path
         id="path18"
         style="fill:#aa;fill-opacity:1;fill-rule:nonzero;stroke:none"
         d="M 120,237.5 99.7656,320.039 78.4375,237.75 Z m 11.105,161.25 61.493,-231.141 4.504,-15.379 c 1.796,-4.101 3.203,-6.73 4.199,-7.91 l 5.703,-3.07 c 0.801,0 1.894,0 3.301,0 1.394,0 3.191,0 5.398,0 V 100 H 118.75 v 41.25 h 12.93 c 2.207,0.582 3.711,1.32 4.511,2.199 l 2.11,3.52 0.898,4.41 -0.594,5.73 -2.101,10.129 L 130.496,195 H 68.3984 l -7.7929,-30.398 -1.8047,-8.813 -0.5977,-4.41 0.3047,-3.52 1.5117,-2.648 2.1211,-2.199 3.3203,-1.762 H 79.375 V 100 H 0 v 41.25 h 6.60156 l 4.79684,1.32 2.9961,2.192 2.7071,3.519 2.4023,5.699 2.6953,8.79 62.9961,235.98 h 45.9097" /><path
         id="path20"
         style="fill:#aa;fill-opacity:1;fill-rule:nonzero;stroke:none"
         d="m 345.598,313.75 12,-59.941 -27.899,-16.309 c -2.402,6.051 -5.41,11.512 -9.004,16.359 -3.007,5.153 -6.601,9.692 -10.8,13.641 l -5.997,4.539 -5.703,3.641 -5.996,1.82 h -6.008 c -2.996,0 -5.402,-0.301 -7.195,-0.879 -1.797,-0.59 -3.207,-1.609 -4.199,-3.07 -1.203,-0.879 -2.149,-2.192 -2.852,-3.942 -0.703,-1.757 -1.047,-3.507 -1.047,-5.257 l 0.598,-4.383 2.098,-3.949 4.211,-3.942 6.894,-4.387 40.496,-20.152 10.508,-7.019 9.895,-7.45 c 2.996,-2.34 5.898,-5.55 8.699,-9.64 2.199,-2.629 4.152,-5.989 5.851,-10.078 1.7,-4.09 3.008,-8.692 3.907,-13.801 0.898,-5.121 1.347,-10.301 1.347,-15.563 0,-9.937 -1.308,-18.847 -3.906,-26.738 -2.598,-7.891 -6.398,-14.75 -11.398,-20.59 -6.004,-7.012 -12.801,-12.422 -20.399,-16.211 -7.597,-3.2185 -15.703,-4.8279 -24.297,-4.8279 -7.207,0 -14.16,1.168 -20.863,3.4687 -6.695,2.3082 -12.945,6.3712 -18.738,12.1602 L 261.594,100 h -19.492 l -18.008,70.352 27.605,17.148 c 1.59,-3.75 3.391,-7.5 5.403,-11.25 1.394,-2.891 3.496,-6.352 6.296,-10.379 4.395,-6.351 9.043,-11.621 13.946,-15.801 4.902,-4.179 9.746,-7.57 14.551,-10.172 5.597,-2.019 10.097,-3.027 13.507,-3.027 l 7.196,1.27 5.996,3.82 3,4.238 1.199,5.512 -0.898,4.238 -2.403,4.653 -5.398,4.238 -8.703,5.512 -31.797,16.726 c -8.203,3.82 -15.41,8.152 -21.602,13 -6.203,4.844 -10.898,9.981 -14.101,15.41 -3.203,5.434 -5.594,10.922 -7.196,16.512 -0.605,3.52 -1.105,6.75 -1.504,9.691 -0.402,2.93 -0.597,6.309 -0.597,10.118 0,8.812 1.191,17.031 3.594,24.66 2.402,7.64 6.25,14.902 11.554,21.801 5.301,6.89 11.406,12.031 18.297,15.41 6.899,3.379 14.555,5.07 22.961,5.07 6.992,0 13.691,-1.262 20.098,-3.77 6.398,-2.511 12.199,-6.269 17.402,-11.289 l 3.898,10.059 h 19.2" /><path
         id="path22"
         style="fill:#aa;fill-opacity:1;fill-rule:nonzero;stroke:none"
         d="m 451.992,295.352 13.254,10.539 11.785,7.461 10.899,3.949 10.312,1.308 c 5.098,0 9.492,-0.73 13.176,-2.199 4.078,-1.18 8.113,-3.238 12.098,-6.172 3.984,-2.929 7.199,-6.449 9.648,-10.558 2.453,-3.231 4.699,-7.192 6.75,-11.879 1.629,-4.699 2.91,-9.903 3.828,-15.621 0.918,-5.731 1.375,-12.102 1.375,-19.141 V 152.691 c 0,-2.941 0.196,-4.691 0.606,-5.281 l 1.523,-3.531 2.734,-2.629 h 17.637 V 100 h -86.25 v 41.25 h 9.641 l 3.32,1.32 2.11,1.75 1.199,3.071 0.605,5.269 v 95.719 l -0.898,7.461 -1.805,3.949 -2.707,3.949 -3.602,2.192 -4.503,0.879 -6.903,-0.879 c -2.609,-0.578 -4.863,-1.461 -6.758,-2.629 -1.906,-1.172 -3.507,-2.192 -4.804,-3.071 -1.309,-0.878 -2.754,-2.05 -4.356,-3.511 l -9.914,-9.219 v -94.84 c 0,-2.93 0,-4.832 0,-5.711 l 1.563,-2.629 2.187,-1.75 3.75,-1.32 h 9.375 V 100 h -85 v 41.25 h 13.965 c 1.621,0 2.734,0.289 3.34,0.879 l 1.816,1.75 1.223,3.07 0.906,4.84 v 202.82 h -21.25 v 42.063 L 396.719,398 c 2.187,0.289 4.023,0.648 5.519,1.102 1.492,0.437 4.434,1.539 8.817,3.32 l 14.347,5.308 12.852,6.641 h 13.738 V 295.352" /><path
         id="path24"
         style="fill:#aa;fill-opacity:1;fill-rule:nonzero;stroke:none"
         d="m 661.195,269.68 c -2.187,-0.879 -4.629,-2.571 -7.312,-5.051 -2.695,-2.488 -4.934,-5.488 -6.731,-9.008 -1.797,-3.512 -3.289,-7.461 -4.48,-11.84 -1.192,-4.402 -2.285,-10.101 -3.281,-17.121 l -0.899,-19.762 0.899,-20.617 c 0.593,-6.16 1.543,-11.5 2.832,-16.031 1.289,-4.539 2.937,-8.93 4.929,-13.172 1.993,-4.238 3.985,-7.379 5.977,-9.437 l 7.473,-5.262 7.773,-1.758 c 3.973,0 7.852,1.309 11.641,3.949 3.789,2.629 7.175,6.512 10.164,11.629 2.988,5.121 5.371,12.071 7.168,20.86 0.8,4.382 1.398,8.769 1.797,13.16 0.39,4.402 0.597,9.812 0.597,16.242 0,7.32 -0.109,12.508 -0.304,15.59 -0.196,3.058 -0.899,7.238 -2.09,12.508 -1.192,7.613 -3.231,14.269 -6.121,19.972 -2.891,5.699 -6.231,10.02 -10.012,12.949 -3.789,2.93 -7.774,4.391 -11.953,4.391 -2.586,0.301 -5.274,-0.441 -8.067,-2.191 z m 30.715,45.558 c 7.195,-2.047 13.992,-5.699 20.391,-10.949 5.801,-4.109 11.297,-9.801 16.492,-17.109 4.797,-6.141 8.801,-13.442 12.004,-21.91 3.191,-7.598 5.691,-16.372 7.488,-26.309 1.797,-9.941 2.707,-20.461 2.707,-31.563 0,-16.66 -1.855,-31.777 -5.547,-45.367 -3.703,-13.601 -9.199,-25.5 -16.496,-35.722 -7.304,-10.239 -15.996,-17.899 -26.094,-23.02 -10.097,-5.1093 -21.347,-7.6679 -33.738,-7.6679 -13,0 -24.394,2.4883 -34.191,7.4489 -9.805,4.969 -18.446,12.559 -25.946,22.801 -7.5,10.219 -13,22.129 -16.496,35.719 -3.496,13.59 -5.242,28.859 -5.242,45.808 0,8.481 0.145,14.321 0.449,17.543 0.293,3.207 0.946,7.739 1.954,13.579 1.796,9.941 4.285,18.71 7.488,26.312 3.203,7.598 7.246,14.828 12.148,21.699 4.903,6.867 10.352,12.641 16.348,17.309 5.996,4.672 12.637,8.332 19.941,10.961 7.297,2.629 14.942,3.949 22.95,3.949 7.988,0.289 15.793,-0.879 23.39,-3.512" /><path
         id="path26"
         style="fill:#aa;fill-opacity:1;fill-rule:nonzero;stroke:none"
         d="m 842.184,221.16 28.281,35.711 3.64,4.02 1.829,2.679 v 5.352 c -0.618,1.187 -1.125,1.937 -1.536,2.238 l -3.066,1.34 h -11.023 v 41.25 h 89.519 v -41.262 l -8.094,-1.316 -5.109,-1.32 -6.297,-4.821 -8.996,-9.222 -28.504,-29.848 40.496,-68.91 5.403,-9.223 4.5,-4.379 5.703,-2.199 h 9.601 V 100 h -90.722 v 41.25 h 9.675 c 1.211,0 2.012,0.289 2.422,0.879 l 1.211,1.75 0.606,2.203 -1.211,4.387 -3.309,7.472 -16.894,32.489 -18.125,-20.2 v -18.89 c 0,-2.039 0,-3.512 0,-4.379 l 1.25,-2.641 1.875,-1.75 3.125,-1.32 h 9.375 V 100 h -83.75 v 41.27 l 3.886,-0.02 h 9.578 c 1.594,0 2.891,0.441 3.899,1.32 l 2.09,2.2 1.199,3.082 0.598,6.16 v 201.609 h -21.25 v 41.25 c 6.543,0 11.25,0.301 14.129,0.899 2.871,0.601 6.789,1.941 11.75,4.031 4.558,1.5 9.023,3.148 13.386,4.949 4.356,1.789 9.219,4.332 14.582,7.621 h 14.278 V 221.16" /><path
         id="path28"
         style="fill:#aa;fill-opacity:1;fill-rule:nonzero;stroke:none"
         d="M 1172.93,398.75 V 357.5 h -8.92 c -2.77,0 -4.75,-0.629 -5.94,-1.879 h -3.28 l -2.96,-2.633 -2.08,-3.968 -1.2,-5.711 V 155.488 c 0,-2.058 0,-3.527 0,-4.406 l 1.22,-1.762 1.5,-1.75 3.02,-1.32 h 5.12 c 3.62,0 7.34,0 11.17,0 3,0.879 5.67,1.609 7.98,2.199 2.32,0.582 4.33,1.18 6.04,1.762 1.71,0.59 3.88,1.91 6.49,3.969 3.42,2.05 7.04,4.992 10.86,8.808 3.82,3.813 7.44,8.813 10.86,14.992 0.6,1.168 1.96,4.18 4.07,9.02 2.1,4.84 3.67,8.52 4.67,11.02 1.01,2.5 2.32,6.378 3.93,11.679 0.6,2.051 1.91,6.61 3.92,13.66 L 1256.25,210.18 1229.55,100 h -156 v 41.25 h 15.05 l 3.91,2 2.41,3 1.81,3.949 1.2,5.27 v 186.992 c 0,2.629 -0.4,4.68 -1.2,6.141 l -1.51,3.949 -2.41,3.07 h -8.43 l -10.83,1.879 v 41.25 h 99.38" /><path
         id="path30"
         style="fill:#aa;fill-opacity:1;fill-rule:nonzero;stroke:none"
         d="m 1366.47,251.859 c -0.6,3 -1.4,5.922 -2.4,8.77 -0.99,2.851 -2.39,5.32 -4.19,7.422 l -4.5,4.961 -5.7,3.136 -5.7,1.352 h -3.9 l -4.2,-1.352 -3.59,-2.699 -5.41,-5.398 -3.89,-7.192 -2.71,-9 -1.79,-11.238 h 49.49 c 0,4.488 -0.51,8.238 -1.51,11.238 z m 50.71,-102.398 c -5.4,-9.551 -11.19,-17.949 -17.39,-25.172 -1,-1.168 -3.25,-3.629 -6.74,-7.391 -3.5,-3.769 -7.05,-6.808 -10.65,-9.117 -3.59,-2.32 -7.39,-4.351 -11.38,-6.082 -1,-0.301 -3.5,-1.301 -7.49,-3.0388 -3.21,-0.8594 -6.45,-1.5821 -9.75,-2.1719 -3.3,-0.5664 -6.75,-0.8672 -10.34,-0.8672 -10.6,0 -20.74,2.6406 -30.43,7.8909 -9.69,5.258 -18.28,13.367 -25.77,24.328 -7.5,10.961 -13.2,23.23 -17.09,36.832 -3.9,13.578 -5.84,27.969 -5.84,43.168 0,9.941 0.9,19.66 2.69,29.148 1.8,9.492 4.35,18.492 7.65,26.961 3.29,8.481 7.28,16.082 11.98,22.801 4.7,6.711 10.05,12.488 16.05,17.309 5.99,4.82 12.49,8.55 19.48,11.179 3.59,1.16 7.04,2.043 10.34,2.633 3.3,0.578 7.15,0.879 11.54,0.879 2.2,0 4.09,0 5.7,0 1.6,0 4.39,-0.59 8.39,-1.762 5,-0.879 9.19,-2.5 12.59,-4.84 1.99,-0.878 3.9,-1.91 5.7,-3.078 1.79,-1.172 3.59,-2.64 5.4,-4.39 3.98,-2.942 7.28,-6.321 9.88,-10.129 3.2,-3.813 5.95,-7.992 8.25,-12.539 2.3,-4.551 4.44,-9.68 6.44,-15.391 1.99,-5.723 3.49,-11.371 4.5,-16.941 l 3,-17.149 0.59,-11.441 0.31,-16.719 h -98.61 c 0,-9.5 0.95,-17.699 2.84,-24.609 1.9,-6.903 4.55,-13.231 7.95,-18.981 3.2,-4.609 7.19,-8.793 11.99,-12.519 4.19,-2.602 8.89,-3.891 14.09,-3.891 1.99,0 3.99,0 5.98,0 2,0.848 3.4,1.418 4.2,1.711 3.4,1.129 7.09,3.27 11.1,6.406 l 5.69,4.692 5.99,5.992 5.4,6.84 5.99,8.109 19.78,-28.66" /><path
         id="path32"
         style="fill:#aa;fill-opacity:1;fill-rule:nonzero;stroke:none"
         d="M 1520.8,313.75 V 272.5 h -5.85 c -2.93,0 -5.07,-0.422 -6.42,-1.25 -1.76,0 -2.93,0 -3.52,0 l -1.75,-2.219 -0.58,-2.66 0.59,-4.871 2.66,-8.418 21.6,-77.973 23.45,77.653 1.71,7.058 0.69,4.84 -0.61,3.512 c -0.61,1.168 -1.12,1.758 -1.52,1.758 l -3.65,1.32 h -6.7 l -8.22,1.25 v 41.25 h 79.2 v -41.18 l -8.34,-1.32 h -3.86 l -2.39,-1.398 -1.48,-1.864 -2.38,-5.129 -2.98,-8.398 -66.48,-197.9219 c -3,-9.4883 -6.6,-18.25 -10.8,-26.2696 -3.39,-6.8203 -7.3,-12.75 -11.7,-17.8007 -4.19,-4.16021 -8.79,-7.27739 -13.79,-9.35942 -2.41,-0.89063 -4.91,-1.62891 -7.5,-2.218755 C 1477.58,0.300781 1474.78,0 1471.78,0 c -2,0 -4.15,0.078125 -6.46,0.210938 -2.3,0.160156 -5.25,1.257812 -8.85,3.328122 -4.19,1.78125 -7.99,4.80078 -11.39,9.07034 -3.4,4.2812 -6.06,8.8594 -7.95,13.7304 -1.91,4.8711 -2.85,10.2618 -2.85,16.1602 0,5.0195 0.54,9.1602 1.65,12.3906 1.09,3.25 2.64,6.6485 4.65,10.1875 l 6.9,7.0821 c 2.6,1.4804 5.2,2.2109 7.79,2.2109 2.41,0 4.3,-0.2813 5.71,-0.8711 l 5.7,-3.4687 1.8,-1.7422 2.1,-1.7383 1.79,-2.6211 1.81,-3.0313 2.1,-3.4765 1.8,-2.1836 1.2,-0.8672 h 1.49 l 3,0.8789 3.01,3.0781 4.49,9.2422 5.4,14.961 5.7,17.5897 -49.79,153.09 -3.61,8.801 -2.09,5.277 -2.41,2.199 -2.1,1.762 h -12.59 v 42.5 h 91.02" /><path
         id="path34"
         style="fill:#aa;fill-opacity:1;fill-rule:nonzero;stroke:none"
         d="M 1690.36,163.641 V 152.66 c 0,-2.34 0.2,-3.801 0.61,-4.39 l 1.52,-3.95 3.03,-2.191 3.96,-0.879 h 13.38 V 100 h -91.25 v 41.25 h 12.76 c 2.03,0 3.43,0.289 4.25,0.879 l 2.42,2.191 1.53,3.071 0.92,5.711 V 355 h -21.88 v 41.25 c 4.61,0 8.83,0.449 12.66,1.359 3.83,0.891 8.55,2.262 14.18,4.082 9.04,2.707 18.28,6.938 27.73,12.68 h 14.18 v -250.73" /><path
         id="path36"
         style="fill:#aa;fill-opacity:1;fill-rule:nonzero;stroke:none"
         d="m 1805.84,191.289 -7.41,-1.769 -5.94,-2.668 -4.45,-1.762 c -2.39,-0.891 -4.61,-2.371 -6.68,-4.442 -2.08,-2.066 -3.62,-4.128 -4.6,-6.187 l -2.38,-6.199 -0.88,-6.641 c 0,-2.961 0.39,-5.691 1.18,-8.191 0.79,-2.508 1.82,-4.59 3.11,-6.211 1.29,-1.617 2.92,-3.168 4.91,-4.641 1.77,-0.887 4.05,-1.328 6.82,-1.328 l 5.05,0.891 5.93,2.648 6.82,4.883 7.43,5.75 v 38.519 z m 8.91,55.223 c 0,5.308 0,9.136 0,11.508 l -0.9,7.531 -2.41,5.308 -3.62,3.981 -4.81,2.66 h -5.72 c -2.02,0 -3.62,0 -4.82,0 -1.21,0 -2.51,-0.609 -3.92,-1.809 l -3.61,-2.722 -2.71,-3.168 -2.71,-5.891 -2.71,-8.601 c -1.21,-4.528 -2.72,-8.61 -4.52,-12.227 l -5.11,-7.691 -6.03,-4.532 -6.92,-1.359 c -3.21,0 -6.03,0.59 -8.43,1.762 -2.41,1.168 -4.62,3.218 -6.63,6.148 -2.01,2.93 -3.47,5.942 -4.37,9.012 -0.89,3.078 -1.55,7.406 -1.95,12.969 0,4.98 0.45,9.449 1.35,13.41 0.9,3.961 2.54,8.129 4.93,12.527 2.39,4.391 5.68,8.723 9.87,12.973 4.19,4.25 8.83,7.758 13.92,10.558 5.09,2.782 10.77,5.121 17.06,7.032 6.29,1.898 12.92,2.859 19.91,2.859 6.38,0 12.51,-0.809 18.4,-2.422 5.89,-1.617 11.23,-4.027 16.02,-7.25 4.78,-3.219 8.78,-6.879 11.97,-10.976 3.39,-3.512 6.03,-7.461 7.93,-11.852 1.89,-4.398 3.18,-9.449 3.89,-15.16 0.7,-5.711 1.15,-9.879 1.34,-12.52 0.2,-2.64 0.31,-7.172 0.31,-13.601 v -88.278 l 0.92,-6.601 1.54,-3.5 2.77,-3.52 3.69,-2.191 4,-0.879 4.92,0.93 6.46,2.82 v -41.57 l -12.46,-3.9808 -11.84,-1.3281 c -4.41,0 -8.16,0.4375 -11.25,1.3008 -3.11,0.8789 -5.26,1.5273 -6.46,1.9571 -1.2,0.43 -2.9,1.09 -5.1,1.973 -2.8,2.027 -5.7,4.777 -8.7,8.269 l -7.2,10.879 -14.05,-11.75 -12.57,-7.84 -11.66,-3.4803 -11.36,-1.3086 c -6.78,0 -12.91,1.3281 -18.39,3.9879 -5.49,2.653 -10.62,6.782 -15.4,12.391 -4,5.609 -7.14,12.102 -9.43,19.48 -2.29,7.379 -3.43,15.2 -3.43,23.469 0,5.012 0.34,9.801 1.04,14.383 0.69,4.566 1.79,8.637 3.29,12.18 1.5,3.539 3.39,7.226 5.69,11.066 2.28,3.82 4.93,7.223 7.92,10.184 2.18,2.66 5.52,5.379 10.02,8.187 4.48,2.801 10.21,5.391 17.18,7.75 l 20.33,5.75 24.53,4.422 v 16.391" /><path
         id="path38"
         style="fill:#aa;fill-opacity:1;fill-rule:nonzero;stroke:none"
         d="m 1965.83,290.52 15.23,13.23 12.84,8.828 3.88,1.754 4.18,1.77 7.76,1.769 8.36,0.879 c 4.96,0 9.33,-0.738 13.12,-2.211 4.18,-1.168 8.07,-3.379 11.64,-6.598 3.6,-2.652 6.72,-5.953 9.42,-9.91 2.67,-3.972 4.82,-8.16 6.4,-12.562 1.6,-4.41 2.83,-9.84 3.73,-16.289 0.9,-6.469 1.35,-13.508 1.35,-21.141 v -98.668 l 0.94,-5.281 1.23,-3.078 2.15,-1.762 h 18.18 V 100 h -86.25 v 41.27 l 7.68,-0.02 h 3.37 l 3.07,1.762 1.84,3.07 0.92,5.707 v 88.25 c 0,5.551 -0.2,9.793 -0.59,12.723 -0.39,2.929 -0.9,5.129 -1.49,6.59 -1.19,2.339 -2.55,4.019 -4.14,5.039 -1.58,1.031 -3.86,1.839 -6.81,2.418 l -6.53,-0.879 -6.81,-3.071 c -2.56,-0.879 -5.43,-2.918 -8.6,-6.14 l -10.66,-10.539 v -84.739 c 0,-5.859 0.2,-10.031 0.61,-12.511 0.39,-2.489 0.89,-4.168 1.5,-5.051 l 3.61,-2.629 h 11.16 V 100 h -85.63 v 41.25 h 12.64 c 2.46,0 4,0.289 4.63,0.879 l 2.14,1.762 1.55,2.648 0.92,4.859 V 260 h -21.88 v 41.25 c 4.02,0 8.11,0.512 12.23,1.531 4.12,1.02 8.59,2.547 13.41,4.59 8.85,2.91 16.78,6.707 23.83,11.379 h 13.87 v -28.23" /><path
         id="path40"
         style="fill:#aa;fill-opacity:1;fill-rule:nonzero;stroke:none"
         d="m 2209.62,232.801 c 0,4.969 0,8.48 0,10.527 l -0.91,7.91 -2.73,7.461 c -1.42,2.629 -3.14,4.821 -5.16,6.582 l -6.68,4.399 -7.28,1.742 c -2.64,0 -5.11,-0.512 -7.44,-1.531 -2.32,-1.032 -4.65,-2.711 -6.98,-5.051 -2.32,-2.34 -4.45,-5.34 -6.37,-8.988 -1.92,-3.672 -3.49,-7.692 -4.7,-12.082 -1.21,-4.399 -2.33,-10.098 -3.34,-17.122 l -0.91,-19.316 c 0,-9.953 0.74,-18.941 2.25,-26.992 1.5,-8.051 3.75,-15 6.75,-20.852 2.2,-4.398 4.8,-8.058 7.8,-10.976 3.2,-2.34 6.7,-3.512 10.5,-3.512 l 4.8,0.441 c 1.99,0.579 3.49,1.321 4.5,2.188 l 6.3,4.391 9.6,8.339 z m 46.87,-67.84 V 152.66 c 0,-2.93 0.2,-4.832 0.6,-5.699 l 1.2,-3.082 1.81,-1.75 3.89,-0.879 h 14.11 V 100 l -63.37,-3.0781 V 118.75 l -12.93,-12.012 -11.13,-6.668 -5.41,-2.2184 -5.1,-1.3399 -5.42,-0.8906 h -5.11 c -3.61,0 -6.32,0.1484 -8.12,0.4375 -1.8,0.3008 -4.76,1.25 -8.86,2.8398 -4.11,1.6136 -8.77,4.6016 -13.99,8.9926 -4.61,4.668 -8.92,10.218 -12.93,16.648 -3.61,6.723 -6.86,14.16 -9.77,22.34 -2.91,8.18 -5.36,17.672 -7.36,28.48 -0.6,5.25 -1.11,10.211 -1.51,14.891 -0.4,4.672 -0.6,9.93 -0.6,15.77 0,11.39 0.76,21.98 2.26,31.761 1.5,9.789 3.81,19.051 6.91,27.821 3.11,8.757 6.62,16.359 10.52,22.789 3.91,6.418 8.37,11.968 13.39,16.64 2.6,2.328 4.9,4.16 6.91,5.481 2.01,1.297 4.66,2.687 7.97,4.16 3.3,1.457 6.26,2.476 8.87,3.058 2.6,0.59 5.7,0.879 9.32,0.879 4,0 7.01,-0.3 9.02,-0.89 l 8.72,-2.649 c 1.6,-0.3 3.16,-0.89 4.66,-1.769 1.5,-0.891 3.06,-1.93 4.66,-3.102 l 9.92,-7.078 v 51.25 h -21.83 v 42.231 l 16.58,2.668 c 3.8,0.582 6.31,1.031 7.52,1.32 1.22,0.301 3.12,1.039 5.74,2.23 l 11.75,4.879 12.95,6.672 h 14.16 v -249.41" /></g></g></svg>