<?xml version="1.0" encoding="UTF-8" standalone="no"?>
<svg
   xmlns:dc="http://purl.org/dc/elements/1.1/"
   xmlns:cc="http://creativecommons.org/ns#"
   xmlns:rdf="http://www.w3.org/1999/02/22-rdf-syntax-ns#"
   xmlns:svg="http://www.w3.org/2000/svg"
   xmlns="http://www.w3.org/2000/svg"
   viewBox="0 0 1594.5333 420.35999"
   height="420.35999"
   width="1594.5333"
   xml:space="preserve"
   id="svg2"
   version="1.1"><metadata
     id="metadata8"><rdf:RDF><cc:Work
         rdf:about=""><dc:format>image/svg+xml</dc:format><dc:type
           rdf:resource="http://purl.org/dc/dcmitype/StillImage" /></cc:Work></rdf:RDF></metadata><defs
     id="defs6"><clipPath
       id="clipPath20"
       clipPathUnits="userSpaceOnUse"><path
         id="path18"
         d="M 0,3152.69 V 0 h 11959 v 3152.69 z" /></clipPath></defs><g
     transform="matrix(1.3333333,0,0,-1.3333333,0,420.36)"
     id="g10"><g
       transform="scale(0.1)"
       id="g12"><g
         id="g14"><g
           clip-path="url(#clipPath20)"
           id="g16"><path
             id="path22"
             style="fill:#ce1e25;fill-opacity:1;fill-rule:evenodd;stroke:none"
             d="m 9196.17,1977.66 c 269.98,497.78 944.93,641.2 1451.13,194.05 50.6,-42.18 67.5,-84.37 135,-84.37 286.9,0 641.2,0 919.6,0 109.7,0 177.2,33.75 194.1,101.25 16.8,42.18 0,101.24 -59.1,160.3 -388.1,472.46 -944.9,759.31 -1712.7,801.5 -835.22,33.74 -1721.09,-303.73 -2109.19,-1012.43 -177.18,-329.03 -177.18,-793.06 0,-1122.09 C 8403.11,307.16 9288.98,-38.7383 10124.2,3.44141 10740.1,37.1797 11221,222.801 11592.2,543.402 c 118.2,101.239 211,219.36 312.2,337.469 59.1,67.5 59.1,126.559 50.6,168.749 -16.9,59.05 -92.8,92.8 -194,92.8 -278.4,0 -641.2,0 -919.6,0 -84.4,0 -185.7,-168.74 -261.6,-219.361 -92.8,-75.938 -177.2,-134.989 -278.4,-168.739 -430.28,-143.429 -894.31,33.75 -1105.23,421.85 -134.99,244.67 -134.99,548.39 0,801.49 z M 3594.1,70.9297 h 742.45 c 84.36,0 194.04,75.9413 244.66,151.8713 L 5678,1994.54 c 25.31,42.18 59.06,67.5 101.25,67.5 42.18,0 75.93,-33.75 101.24,-67.5 l 430.27,-683.39 c 50.63,-84.37 16.88,-126.55 -84.36,-126.55 h -599.02 c -84.37,0 -202.49,-67.49 -244.66,-151.86 -50.63,-84.369 -101.25,-177.181 -151.87,-261.541 -67.5,-109.679 -42.19,-194.058 84.37,-194.058 h 1282.4 c 134.99,0 185.61,-33.739 253.1,-143.422 l 126.56,-210.918 c 50.62,-75.93 160.3,-151.8713 244.67,-151.8713 h 742.44 c 92.81,0 118.11,75.9413 67.5,151.8713 L 6420.45,2922.59 c -50.62,84.37 -160.3,151.86 -244.68,151.86 h -793.05 c -84.38,0 -194.06,-67.49 -244.68,-151.86 L 3526.6,222.801 c -50.62,-75.93 -25.3,-151.8713 67.5,-151.8713 z M 3442.24,3074.45 V 1049.62 c 0,-539.968 -413.41,-978.6903 -919.62,-978.6903 H 911.18 C 413.406,70.9297 0.00390625,509.652 0.00390625,1049.62 V 1319.6 H 784.625 c 160.305,0 236.235,-59.07 236.235,-227.81 v -42.17 c 0,-185.62 134.99,-396.538 337.47,-396.538 h 725.57 c 202.49,0 337.48,210.918 337.48,396.538 v 1662.05 c 0,202.48 92.8,362.78 312.16,362.78 h 708.7" /></g></g></g></g></svg>