<?xml version="1.0" standalone="no"?>
<!DOCTYPE svg PUBLIC "-//W3C//DTD SVG 20010904//EN"
 "http://www.w3.org/TR/2001/REC-SVG-20010904/DTD/svg10.dtd">
<svg version="1.0" xmlns="http://www.w3.org/2000/svg"
 width="128.000000pt" height="128.000000pt" viewBox="0 0 128.000000 128.000000"
 preserveAspectRatio="xMidYMid meet">

<g transform="translate(0.000000,128.000000) scale(0.100000,-0.100000)"
fill="##e31e24" stroke="none">
<path d="M333 863 c-17 -6 -16 -33 1 -33 20 0 40 26 24 32 -7 3 -19 3 -25 1z"/>
<path d="M510 845 c7 -8 19 -15 26 -15 8 0 14 7 14 15 0 10 -10 15 -26 15 -22
0 -25 -2 -14 -15z"/>
<path d="M94 837 c-3 -8 -4 -47 -2 -88 l3 -74 37 -3 c33 -3 37 -1 40 24 4 38
19 39 43 4 16 -24 27 -30 58 -30 20 0 37 2 37 4 0 2 -16 23 -35 47 -19 24 -35
49 -35 55 0 6 11 21 25 34 32 30 32 40 -3 40 -18 0 -38 -11 -58 -31 l-29 -30
-5 28 c-4 23 -11 29 -38 31 -21 2 -34 -2 -38 -11z"/>
<path d="M363 830 c-84 -51 -34 -165 72 -165 79 0 131 62 105 125 -24 58 -114
79 -177 40z m105 -42 c29 -29 -7 -86 -47 -73 -26 8 -38 50 -21 70 15 18 51 20
68 3z"/>
<path d="M619 835 c-35 -19 -54 -65 -42 -101 15 -44 56 -69 111 -67 26 1 62 3
80 3 32 1 32 2 32 51 l0 49 -45 0 c-47 0 -73 -23 -45 -40 19 -12 -6 -23 -35
-16 -25 6 -43 45 -30 65 14 24 41 30 69 15 64 -33 102 -6 50 35 -32 25 -105
28 -145 6z"/>
<path d="M840 760 l0 -90 90 0 c83 0 90 1 90 20 0 18 -7 20 -55 20 -42 0 -55
3 -55 15 0 11 12 15 45 15 38 0 45 3 45 20 0 17 -7 20 -45 20 -63 0 -57 18 8
22 44 3 52 6 52 23 0 18 -8 20 -87 23 l-88 3 0 -91z"/>
<path d="M1050 760 l0 -90 75 0 c68 0 75 2 75 20 0 17 -7 20 -40 20 l-40 0 0
70 0 70 -35 0 -35 0 0 -90z"/>
</g>
</svg>
