<?xml version="1.0" encoding="UTF-8" standalone="no"?>
<svg
   xmlns:dc="http://purl.org/dc/elements/1.1/"
   xmlns:cc="http://creativecommons.org/ns#"
   xmlns:rdf="http://www.w3.org/1999/02/22-rdf-syntax-ns#"
   xmlns:svg="http://www.w3.org/2000/svg"
   xmlns="http://www.w3.org/2000/svg"
   id="svg14"
   version="1.1"
   fill-rule="evenodd"
   viewBox="0 0 612 792"
   height="792pt"
   width="612pt">
  <metadata
     id="metadata20">
    <rdf:RDF>
      <cc:Work
         rdf:about="">
        <dc:format>image/svg+xml</dc:format>
        <dc:type
           rdf:resource="http://purl.org/dc/dcmitype/StillImage" />
      </cc:Work>
    </rdf:RDF>
  </metadata>
  <defs
     id="defs18" />
  <g
     id="g12">
    <g
       id="g10">
      <path
         id="path2"
         d="M 111.622 844.609C 157.958 844.609 195.75 874.405 195.75 912.39C 195.75 950.375 157.958 981.356 111.622 981.356C 65.2853 981.356 27.4932 950.375 27.4932 912.39C 27.4932 874.405 65.2853 844.609 111.622 844.609zM 111.622 877.663C 129.94 877.663 144.882 893.263 144.882 912.39C 144.882 931.516 129.94 947.117 111.622 947.117C 93.3026 947.117 78.3615 931.516 78.3615 912.39C 78.3615 893.263 93.3026 877.663 111.622 877.663zM 329.659 896.506C 322.142 894.781 318.64 885.899 312.236 881.467C 311.625 881.153 311.005 880.856 310.374 880.578C 300.689 877.279 297.474 877.664 296.522 877.664C 277.447 877.664 261.888 893.298 261.888 912.467C 261.888 931.636 277.447 947.27 296.522 947.27C 304.335 947.27 314.306 944.434 320.111 938.598C 321.502 937.2 325.494 935.173 325.989 933.179L 317.184 933.179C 313.463 932.996 308.283 930.813 308.283 926.872L 308.283 918.827C 308.283 917.226 307.97 915.697 308.283 914.284C 309.143 910.385 313.268 907.458 317.184 907.458C 335.448 907.458 353.713 907.513 371.977 907.442C 374.358 907.433 380.237 910.836 380.271 912.778C 380.603 931.749 380.271 950.816 380.271 969.862C 380.271 974.182 376.472 977.717 371.828 977.717L 364.591 977.717C 359.946 977.717 353.249 974.061 353.249 969.741L 353.249 963.193C 338.178 973.94 318.376 980.483 296.731 980.483C 249.734 980.483 211.403 949.659 211.403 911.866C 211.403 874.073 249.314 844.297 296.311 844.297C 328.38 844.297 356.653 856.984 371.226 878.109L 371.585 878.748L 372.539 880.429C 373.854 882.469 375.486 885.408 376.108 886.719C 378.716 892.216 377.657 895.14 372.194 896.506L 329.659 896.506zM 409.814 847.87L 441.98 847.87L 446.577 847.87L 517.226 847.87C 524.627 847.87 530.681 852.921 530.681 859.095L 530.681 868.717C 530.681 874.89 524.627 879.942 517.226 879.942L 452.705 879.942L 452.705 899.179L 501.909 899.179C 509.223 899.179 515.206 903.503 515.206 908.787L 515.206 917.022C 515.206 922.307 509.223 926.631 501.909 926.631L 452.705 926.631L 452.705 944.838L 517.226 944.838C 524.627 944.838 530.681 949.889 530.681 956.063L 530.681 965.685C 530.681 971.859 524.627 976.91 517.226 976.91L 446.577 976.91L 441.98 976.91L 409.814 976.91C 406.444 976.91 403.686 974.153 403.686 970.783L 403.686 853.997C 403.686 850.627 406.444 847.87 409.814 847.87zM 561.148 848.362L 596.485 848.362C 599.725 848.362 602.375 851.098 602.375 854.442L 602.375 944.138L 655.874 944.138C 662.23 944.138 667.43 949.222 667.43 955.436L 667.43 965.12C 667.43 971.334 662.23 976.418 655.874 976.418C 624.299 976.418 592.722 976.418 561.148 976.418C 557.908 976.418 555.258 973.682 555.258 970.337L 555.258 854.442C 555.258 851.098 557.908 848.362 561.148 848.362zM -126.26 847.868L -89.496 847.868C -86.1259 847.868 -83.3686 850.626 -83.3686 853.996L -83.3686 891.934L -34.9843 848.875L 11.8083 848.875C 11.8083 848.617 13.0938 850.674 13.0938 850.674L 12.8367 852.988L 11.8083 854.274L 9.75146 856.331L -32.989 895.603L -33.9559 899.267L -32.7223 902.136L 17.7216 966.113L 19.7785 969.97L 21.064 973.055L 20.5498 974.855L 19.2643 975.883L 16.9512 976.912L -20.8437 976.912L -63.5227 923.177L -83.3686 942.226L -83.3686 970.781C -83.3686 974.151 -86.1259 976.908 -89.496 976.908L -126.26 976.908C -129.63 976.908 -132.387 974.151 -132.387 970.781L -132.387 853.996C -132.387 850.626 -129.63 847.868 -126.26 847.868zM 42.465 836.706L 56.2649 836.866C 66.6125 836.985 67.7781 846.497 62.1884 850.32L 40.7727 864.967C 36.2937 868.054 32.5735 860.516 32.5735 855.075C 32.5735 847.736 31.5655 836.58 42.465 836.706zM 182.4 836.706L 170.198 836.706C 159.85 836.706 157.068 846.524 162.676 850.32L 184.092 864.967C 188.571 868.054 192.291 860.516 192.291 855.075C 192.291 847.736 193.3 836.706 182.4 836.706z"
         style="stroke:#e21c2a; stroke-width:0.00368504; fill:#e21c2a" />
      <path
         id="path4"
         d="M -305.021 -158.381C -123.414 -158.381 24.7047 -41.5992 24.7047 107.275C 24.7047 256.15 -123.414 377.573 -305.021 377.573C -486.627 377.573 -634.746 256.15 -634.746 107.275C -634.746 -41.5992 -486.627 -158.381 -305.021 -158.381zM -305.021 -28.8329C -233.223 -28.8329 -174.664 32.3114 -174.664 107.275C -174.664 182.237 -233.223 243.382 -305.021 243.382C -376.818 243.382 -435.377 182.237 -435.377 107.275C -435.377 32.3114 -376.818 -28.8329 -305.021 -28.8329zM 549.537 45.0189C 520.076 38.2607 506.35 3.448 481.249 -13.9211C 478.857 -15.1522 476.425 -16.3165 473.955 -17.4064C 435.996 -30.336 423.394 -28.8262 419.663 -28.8262C 344.9 -28.8262 283.922 32.4481 283.922 107.576C 283.922 182.705 344.9 243.979 419.663 243.979C 450.284 243.979 489.363 232.864 512.116 209.993C 517.569 204.511 533.215 196.569 535.153 188.754L 500.645 188.754C 486.06 188.037 465.757 179.482 465.757 164.035L 465.757 132.501C 465.757 126.227 464.531 120.237 465.757 114.697C 469.13 99.4162 485.296 87.9453 500.645 87.9453C 572.225 87.9453 643.812 88.1619 715.393 87.882C 724.728 87.8464 747.769 101.183 747.902 108.796C 749.203 183.148 747.902 257.88 747.902 332.524C 747.902 349.458 733.011 363.312 714.809 363.312L 686.445 363.312C 668.243 363.312 641.994 348.983 641.994 332.05L 641.994 306.389C 582.927 348.508 505.316 374.152 420.481 374.152C 236.286 374.152 86.0556 253.342 86.0556 105.219C 86.0556 -42.9035 234.641 -159.603 418.836 -159.603C 544.526 -159.603 655.336 -109.88 712.45 -27.0819L 713.859 -24.5778L 717.597 -17.9907C 722.751 -9.99493 729.147 1.52155 731.586 6.66101C 741.807 28.2041 737.655 39.6662 716.243 45.0189L 549.537 45.0189zM 863.689 -145.6L 989.759 -145.6L 1007.78 -145.6L 1284.67 -145.6C 1313.68 -145.6 1337.41 -125.802 1337.41 -101.605L 1337.41 -63.8956C 1337.41 -39.6983 1313.68 -19.9006 1284.67 -19.9006L 1031.79 -19.9006L 1031.79 55.4955L 1224.64 55.4955C 1253.3 55.4955 1276.75 72.4414 1276.75 93.1536L 1276.75 125.43C 1276.75 146.142 1253.3 163.088 1224.64 163.088L 1031.79 163.088L 1031.79 234.449L 1284.67 234.449C 1313.68 234.449 1337.41 254.247 1337.41 278.444L 1337.41 316.153C 1337.41 340.35 1313.68 360.148 1284.67 360.148L 1007.78 360.148L 989.759 360.148L 863.689 360.148C 850.48 360.148 839.674 349.342 839.674 336.133L 839.674 -121.585C 839.674 -134.793 850.48 -145.6 863.689 -145.6zM 1456.81 -143.673L 1595.31 -143.673C 1608.01 -143.673 1618.4 -132.949 1618.4 -119.842L 1618.4 231.706L 1828.08 231.706C 1852.99 231.706 1873.37 251.631 1873.37 275.985L 1873.37 313.941C 1873.37 338.295 1852.99 358.221 1828.08 358.221C 1704.32 358.221 1580.56 358.221 1456.81 358.221C 1444.12 358.221 1433.73 347.496 1433.73 334.389L 1433.73 -119.842C 1433.73 -132.949 1444.12 -143.673 1456.81 -143.673zM -1237.35 -145.607L -1093.26 -145.607C -1080.06 -145.607 -1069.25 -134.8 -1069.25 -121.591L -1069.25 27.1021L -879.616 -141.663L -696.221 -141.663C -696.221 -142.67 -691.182 -134.609 -691.182 -134.609L -692.19 -125.54L -696.221 -120.502L -704.282 -112.44L -871.795 41.4816L -875.585 55.84L -870.75 67.0842L -673.044 317.833L -664.983 332.948L -659.945 345.04L -661.96 352.094L -666.998 356.124L -676.064 360.155L -824.194 360.155L -991.467 149.553L -1069.25 224.21L -1069.25 336.126C -1069.25 349.335 -1080.06 360.142 -1093.26 360.142L -1237.35 360.142C -1250.56 360.142 -1261.37 349.335 -1261.37 336.126L -1261.37 -121.591C -1261.37 -134.8 -1250.56 -145.607 -1237.35 -145.607zM -576.067 -189.356L -521.981 -188.729C -481.426 -188.261 -476.857 -150.979 -498.765 -135.997L -582.7 -78.5917C -600.255 -66.4932 -614.835 -96.0365 -614.835 -117.36C -614.835 -146.124 -618.786 -189.849 -576.067 -189.356zM -27.6195 -189.356L -75.4397 -189.356C -115.997 -189.356 -126.903 -150.874 -104.922 -135.997L -20.9869 -78.5917C -3.43219 -66.4932 11.1484 -96.0365 11.1484 -117.36C 11.1484 -146.124 15.1024 -189.356 -27.6195 -189.356z"
         style="stroke:#e21c2a; stroke-width:0.00368504; fill:#e21c2a" />
      <path
         id="path6"
         d="M -71.6064 475.819C 37.3575 475.819 126.229 545.888 126.229 635.212C 126.229 724.537 37.3575 797.391 -71.6064 797.391C -180.57 797.391 -269.442 724.537 -269.442 635.212C -269.442 545.888 -180.57 475.819 -71.6064 475.819zM -71.6064 553.547C -28.5279 553.547 6.60757 590.234 6.60757 635.212C 6.60757 680.189 -28.5279 716.877 -71.6064 716.877C -114.685 716.877 -149.82 680.189 -149.82 635.212C -149.82 590.234 -114.685 553.547 -71.6064 553.547zM 441.129 597.858C 423.452 593.804 415.216 572.916 400.156 562.494C 398.721 561.756 397.261 561.057 395.779 560.403C 373.003 552.645 365.442 553.551 363.204 553.551C 318.346 553.551 281.76 590.316 281.76 635.393C 281.76 680.47 318.346 717.234 363.204 717.234C 381.576 717.234 405.024 710.565 418.676 696.843C 421.947 693.554 431.335 688.788 432.498 684.099L 411.793 684.099C 403.042 683.67 390.86 678.536 390.86 669.268L 390.86 650.348C 390.86 646.583 390.125 642.989 390.86 639.665C 392.884 630.497 402.583 623.614 411.793 623.614C 454.741 623.614 497.694 623.744 540.642 623.576C 546.243 623.555 560.067 631.557 560.147 636.125C 560.928 680.736 560.147 725.575 560.147 770.361C 560.147 780.522 551.213 788.834 540.291 788.834L 523.273 788.834C 512.352 788.834 496.602 780.237 496.602 770.077L 496.602 754.68C 461.162 779.952 414.595 795.338 363.694 795.338C 253.177 795.338 163.039 722.853 163.039 633.978C 163.039 545.105 252.191 475.085 362.708 475.085C 438.121 475.085 504.607 504.919 538.876 554.598L 539.722 556.1L 541.965 560.053C 545.057 564.85 548.894 571.76 550.358 574.844C 556.49 587.77 553.999 594.647 541.152 597.858L 441.129 597.858zM 629.62 483.487L 705.262 483.487L 716.073 483.487L 882.209 483.487C 899.612 483.487 913.851 495.366 913.851 509.884L 913.851 532.51C 913.851 547.028 899.612 558.907 882.209 558.907L 730.482 558.907L 730.482 604.144L 846.191 604.144C 863.388 604.144 877.459 614.312 877.459 626.739L 877.459 646.105C 877.459 658.532 863.388 668.7 846.191 668.7L 730.482 668.7L 730.482 711.516L 882.209 711.516C 899.612 711.516 913.851 723.395 913.851 737.914L 913.851 760.539C 913.851 775.057 899.612 786.936 882.209 786.936L 716.073 786.936L 705.262 786.936L 629.62 786.936C 621.694 786.936 615.21 780.452 615.21 772.527L 615.21 497.896C 615.21 489.971 621.694 483.487 629.62 483.487zM 985.495 484.643L 1068.59 484.643C 1076.21 484.643 1082.44 491.078 1082.44 498.942L 1082.44 709.871L 1208.25 709.871C 1223.2 709.871 1235.43 721.826 1235.43 736.438L 1235.43 759.212C 1235.43 773.824 1223.2 785.779 1208.25 785.779C 1134 785.779 1059.74 785.779 985.495 785.779C 977.877 785.779 971.645 779.345 971.645 771.48L 971.645 498.942C 971.645 491.078 977.877 484.643 985.495 484.643zM -631.005 483.483L -544.552 483.483C -536.627 483.483 -530.143 489.967 -530.143 497.892L -530.143 587.108L -416.363 485.85L -306.326 485.85C -306.326 485.245 -303.303 490.082 -303.303 490.082L -303.908 495.523L -306.326 498.546L -311.163 503.383L -411.671 595.736L -413.945 604.351L -411.044 611.098L -292.42 761.547L -287.584 770.616L -284.561 777.871L -285.77 782.103L -288.793 784.522L -294.232 786.94L -383.11 786.94L -483.474 660.579L -530.143 705.373L -530.143 772.523C -530.143 780.448 -536.627 786.932 -544.552 786.932L -631.005 786.932C -638.931 786.932 -645.414 780.448 -645.414 772.523L -645.414 497.892C -645.414 489.967 -638.931 483.483 -631.005 483.483zM -234.234 457.233L -201.783 457.609C -177.449 457.891 -174.708 480.259 -187.853 489.249L -238.214 523.692C -248.747 530.951 -257.495 513.225 -257.495 500.431C -257.495 483.173 -259.865 456.937 -234.234 457.233zM 94.8344 457.233L 66.1423 457.233C 41.8076 457.233 35.2644 480.323 48.4529 489.249L 98.814 523.692C 109.347 530.951 118.095 513.225 118.095 500.431C 118.095 483.173 120.468 457.233 94.8344 457.233z"
         style="stroke:#e21c2a; stroke-width:0.00368504; fill:#e21c2a" />
      <path
         id="path8"
         d="M 914.075 720.852L 970.966 720.852L 970.966 784.065L 914.075 784.065L 914.075 720.852z"
         style="stroke:#2c2c2b; stroke-width:0.216; fill:none" />
    </g>
  </g>
</svg>
