<?xml version="1.0" encoding="UTF-8" standalone="no"?>
<svg
   xmlns:dc="http://purl.org/dc/elements/1.1/"
   xmlns:cc="http://creativecommons.org/ns#"
   xmlns:rdf="http://www.w3.org/1999/02/22-rdf-syntax-ns#"
   xmlns:svg="http://www.w3.org/2000/svg"
   xmlns="http://www.w3.org/2000/svg"
   viewBox="0 0 380 210.66667"
   height="210.66667"
   width="380"
   xml:space="preserve"
   id="svg2"
   version="1.1"><metadata
     id="metadata8"><rdf:RDF><cc:Work
         rdf:about=""><dc:format>image/svg+xml</dc:format><dc:type
           rdf:resource="http://purl.org/dc/dcmitype/StillImage" /></cc:Work></rdf:RDF></metadata><defs
     id="defs6" /><g
     transform="matrix(1.3333333,0,0,-1.3333333,0,210.66667)"
     id="g10"><g
       transform="scale(0.1)"
       id="g12"><path
         id="path14"
         style="fill:#1f64ac;fill-opacity:1;fill-rule:evenodd;stroke:none"
         d="m 1078,779.789 h 704.2 l 149.6,-145.07 H 937.469 Z m 76.1,96.82 c -87.47,65.727 -116.05,129.541 -115.83,191.751 0.34,92.6 70.93,210.89 240.12,268.25 L 1124.3,1490.68 C 1011.1,1429.52 864.617,1299.22 856.777,1157.37 848.934,1015.51 952.242,865.527 1087.46,797.246 Z m 118.84,696.531 98.23,-696.531 h 130.24 l 98.22,696.781 -164.99,-165.16 z m 439.92,-696.531 c 87.47,65.727 116.05,129.541 115.83,191.751 -0.33,92.6 -70.92,210.89 -240.11,268.25 l 154.08,154.07 c 113.2,-61.16 259.69,-191.46 267.53,-333.31 7.84,-141.86 -95.47,-291.843 -230.69,-360.124 z M 149.551,436.945 H 352.352 L 294.043,263.762 456.793,436.945 H 659.594 L 463.293,245.063 548.914,19.6563 H 346.117 L 277.023,213.223 211.852,19.6563 H 9.05469 Z M 576.348,19.6563 h 193.16 L 823.18,183.105 h 38.371 c 23.937,-0.304 31.301,-19.734 33.269,-38.617 L 878.402,19.6563 h 193.158 l 20.98,159.5667 h -1.73 c -2.68,25.914 -26.31,45.371 -71.11,58.332 183.94,44.183 184.4,199.39 38.9,199.39 H 713.371 Z m 301.64,330.6797 h 49.266 c 28.394,0 39.816,-23.023 38.734,-37.453 -1.347,-17.918 -15.531,-53.289 -70.937,-53.289 h -49.27 z m 652.582,99.824 c 166.81,0 250.1,-86.574 189.22,-233.992 C 1658.9,68.75 1521.25,5.50781 1357.03,5.50781 c -164.23,0 -247.52,78.80469 -184.04,236.59019 63.48,157.785 190.76,208.062 357.58,208.062 z m -40.33,-109.133 c 44.59,0.305 41.75,-58.582 21.28,-115.683 -19.81,-55.281 -55.75,-108.828 -105.49,-110.246 -51.49,-1.473 -47.19,56.922 -27.28,114.699 19.18,55.691 51.96,110.828 111.49,111.23 z M 1717.15,19.6563 h 162.05 l 81.35,248.8827 38.99,-248.8827 H 2237 l 136.39,417.2887 h -162.04 l -77.83,-238.113 -37.3,238.113 h -242.67 z m 746.63,417.2887 h 379.92 l -40.19,-102.164 h -194.53 l -18.75,-54.699 h 187.36 l -31.12,-102.156 h -191.23 l -17.32,-50.563 h 205.96 L 2706.29,19.6563 h -385.46 l 142.95,417.2887" /></g></g></svg>