<?xml version="1.0" standalone="no"?>
<!DOCTYPE svg PUBLIC "-//W3C//DTD SVG 20010904//EN"
 "http://www.w3.org/TR/2001/REC-SVG-20010904/DTD/svg10.dtd">
<svg version="1.0" xmlns="http://www.w3.org/2000/svg"
 width="489.000000pt" height="128.000000pt" viewBox="0 0 489.000000 128.000000"
 preserveAspectRatio="xMidYMid meet">

<g transform="translate(0.000000,128.000000) scale(0.100000,-0.100000)"
fill="#00000" stroke="none">
<path d="M0 640 l0 -640 2445 0 2445 0 0 640 0 640 -2445 0 -2445 0 0 -640z
m152 538 l2 -83 6 85 5 85 5 -83 c4 -71 2 -86 -12 -99 -10 -9 -32 -38 -49 -64
-17 -27 -35 -49 -40 -49 -14 0 -11 30 4 31 10 0 10 2 0 6 -10 3 -13 39 -13
129 l0 124 45 0 45 0 2 -82z m236 75 l-48 -4 17 -32 c9 -18 16 -35 15 -39 -1
-5 3 -8 9 -8 6 0 9 -9 6 -19 -3 -15 -1 -18 11 -14 10 4 13 2 8 -5 -4 -7 -1
-15 8 -18 9 -3 13 -10 10 -15 -3 -5 2 -12 10 -15 9 -3 13 -10 10 -15 -3 -5 0
-9 7 -9 7 0 9 -3 5 -7 -3 -4 -37 23 -74 60 -64 64 -67 69 -64 107 l4 40 57 -2
56 -2 -47 -3z m102 -7 c0 -8 3 -23 7 -33 6 -17 5 -17 -15 1 -25 22 -29 46 -7
46 8 0 15 -6 15 -14z m80 -52 c0 -58 -2 -65 -15 -54 -10 8 -15 31 -15 66 0 41
4 54 15 54 12 0 15 -14 15 -66z m70 27 c0 -22 -6 -44 -15 -51 -13 -11 -15 -6
-15 39 0 39 4 51 15 51 11 0 15 -11 15 -39z m70 35 c0 -2 -7 -9 -15 -16 -13
-11 -14 -10 -9 4 5 14 24 23 24 12z m960 -158 l0 -163 -82 -95 c-45 -52 -78
-86 -74 -75 5 11 11 28 13 37 3 10 9 15 14 12 5 -3 6 2 3 10 -4 11 0 16 12 16
15 0 16 2 5 9 -12 8 -12 14 -1 40 7 17 17 31 22 31 6 0 5 -7 -2 -15 -10 -12
-10 -15 2 -15 8 0 20 11 26 24 9 21 8 23 -8 19 -10 -3 -21 0 -24 6 -9 14 -180
13 -358 -2 -120 -11 -138 -10 -141 3 -3 8 -8 23 -12 33 -6 15 0 17 69 17 47 0
76 4 76 11 0 6 -29 10 -79 8 -78 -2 -81 -1 -105 28 -24 28 -26 38 -26 127 l0
96 335 0 335 0 0 -162z m760 5 l0 -158 -197 3 c-108 2 -203 0 -212 -4 -9 -4
-20 -6 -26 -5 -30 8 -51 10 -172 10 l-133 1 0 155 0 155 370 0 370 0 0 -157z
m232 -54 l3 -210 -27 -26 c-14 -14 -32 -38 -38 -54 -9 -21 -19 -29 -37 -29
-15 0 -27 -8 -33 -22 -8 -21 -9 -20 -9 10 -1 37 34 92 58 92 18 0 51 53 50 78
0 11 -2 12 -6 5 -2 -7 -14 -13 -25 -13 -42 0 -47 25 -48 208 l0 172 55 0 54 0
3 -211z m25 -91 c-1 -57 -3 -11 -3 102 0 113 2 159 3 103 2 -57 2 -149 0 -205z
m30 15 c-1 -54 -3 -10 -3 97 0 107 2 151 3 98 2 -54 2 -142 0 -195z m260 60
c-1 -43 -3 -8 -3 77 0 85 2 120 3 78 2 -43 2 -113 0 -155z m60 0 c-1 -43 -3
-8 -3 77 0 85 2 120 3 78 2 -43 2 -113 0 -155z m263 67 l0 -160 61 0 c37 0 58
-4 54 -10 -3 -5 -29 -10 -56 -10 -45 0 -49 -2 -40 -18 7 -14 18 -18 40 -14 17
2 31 9 31 15 0 6 2 8 5 5 4 -3 3 -17 -1 -32 -5 -21 -12 -26 -36 -26 -16 0 -27
-3 -25 -7 3 -5 -8 -8 -25 -7 -21 1 -35 9 -49 30 -17 26 -19 48 -19 212 l0 182
30 0 30 0 0 -160z m1350 5 l0 -155 -247 -2 -248 -3 -19 -57 -20 -58 -43 3
c-23 1 -43 6 -43 11 0 5 18 6 40 2 25 -4 40 -2 40 4 0 5 -8 10 -17 11 -12 1
-10 4 7 9 l25 8 -25 3 c-14 1 -31 2 -37 2 -14 -1 -16 7 -7 30 4 12 12 13 37 6
20 -5 35 -5 41 1 7 7 4 10 -7 10 -9 0 -17 5 -17 11 0 9 -55 11 -197 8 -109 -2
-263 -3 -343 -1 l-145 2 3 155 3 155 609 0 610 0 0 -155z m-3850 136 c0 -6 -5
-13 -12 -17 -7 -4 -8 -3 -4 4 5 8 -3 12 -23 12 -20 0 -31 -6 -34 -17 -4 -14
-5 -12 -6 5 -1 19 4 22 39 22 22 0 40 -4 40 -9z m-90 -171 c0 -5 -5 -10 -11
-10 -5 0 -7 5 -4 10 3 6 8 10 11 10 2 0 4 -4 4 -10z m10 -76 c0 -2 -9 -4 -21
-4 -11 0 -18 4 -14 10 5 8 35 3 35 -6z m160 -75 c8 -14 2 -16 -40 -16 -56 0
-62 7 -25 27 28 15 32 28 10 36 -8 4 -15 11 -15 17 0 12 57 -40 70 -64z m-813
19 c-3 -8 -6 -5 -6 6 -1 11 2 17 5 13 3 -3 4 -12 1 -19z m263 -5 c28 -24 25
-30 -10 -25 -16 2 -38 1 -47 -4 -13 -6 -2 -10 37 -14 71 -7 67 -24 -7 -29
l-58 -5 60 -6 60 -7 -62 -1 c-71 -2 -73 1 -42 65 23 47 38 52 69 26z m413 -10
c-13 -2 -35 -2 -50 0 -16 2 -5 4 22 4 28 0 40 -2 28 -4z m570 -10 c-5 -14 -87
-20 -168 -12 l-60 6 57 1 c31 1 59 5 61 10 8 12 115 8 110 -5z m684 1 c-3 -3
-12 -4 -19 -1 -8 3 -5 6 6 6 11 1 17 -2 13 -5z m-1227 -18 c8 -2 -11 -4 -42
-5 -32 0 -58 2 -58 7 0 7 64 6 100 -2z m1155 -16 c-6 -28 -5 -30 22 -29 17 1
21 3 11 6 -10 2 -18 9 -18 15 0 5 7 8 15 5 8 -4 17 -2 20 3 3 4 -1 11 -7 13
-8 3 -5 6 6 6 13 1 16 -4 12 -15 -3 -9 -6 -22 -6 -30 0 -9 -12 -15 -32 -15
-29 -2 -30 -2 -7 -6 21 -3 26 -9 22 -24 -4 -15 -14 -19 -47 -19 -36 1 -39 2
-23 14 13 10 15 21 11 45 -4 19 -2 37 6 46 18 22 22 18 15 -15z m1843 23 c-10
-2 -26 -2 -35 0 -10 3 -2 5 17 5 19 0 27 -2 18 -5z m879 -13 c-1 -11 -6 -20
-12 -20 -5 0 -3 -5 5 -10 12 -8 11 -10 -7 -10 -20 0 -20 2 -10 30 13 34 26 40
24 10z m-812 -9 c-3 -6 -18 -11 -33 -11 -29 0 -20 15 13 22 24 5 29 3 20 -11z
m-2544 -35 c-9 -23 -16 -26 -61 -26 -65 0 -57 19 8 22 l47 1 -50 7 c-57 8 -51
13 13 10 28 -1 42 3 42 11 0 7 2 10 5 7 3 -3 1 -17 -4 -32z m-533 17 c-15 -2
-42 -2 -60 0 -18 2 -6 4 27 4 33 0 48 -2 33 -4z m125 -10 c-18 -2 -48 -2 -65
0 -18 2 -4 4 32 4 36 0 50 -2 33 -4z m27 -35 c0 -4 -29 -8 -65 -8 -37 0 -65 4
-65 10 0 6 -27 10 -60 10 -33 0 -60 3 -60 8 0 4 56 3 125 -2 69 -5 125 -13
125 -18z m955 -5 c0 -38 0 -38 43 -38 23 0 42 -4 42 -9 0 -4 -20 -6 -44 -4
-36 2 -46 0 -50 -14 -3 -15 3 -18 35 -18 39 0 45 -5 31 -26 -8 -12 -182 -33
-182 -22 0 4 19 9 43 11 l42 4 -47 1 c-27 1 -48 6 -48 11 0 5 9 7 20 4 16 -4
20 0 20 19 0 14 8 32 18 41 16 15 17 14 14 -22 -3 -33 -1 -39 20 -44 37 -10
86 -8 94 4 5 8 -6 10 -35 7 l-41 -4 0 56 c0 31 5 61 12 68 7 7 12 12 13 12 0
0 0 -17 0 -37z m1948 30 c-7 -2 -19 -2 -25 0 -7 3 -2 5 12 5 14 0 19 -2 13 -5z
m-1228 -13 c3 -5 1 -10 -4 -10 -6 0 -11 5 -11 10 0 6 2 10 4 10 3 0 8 -4 11
-10z m789 -14 c-7 -18 -39 -22 -49 -6 -3 6 3 10 14 10 11 0 23 5 26 11 10 15
17 5 9 -15z m1256 12 c-25 -11 -25 -11 -2 -15 16 -3 22 -11 22 -29 l0 -24
-157 0 c-116 0 -154 3 -146 11 6 6 9 18 6 25 -4 11 18 14 120 14 102 0 126 3
131 15 3 8 16 15 28 14 23 0 23 0 -2 -11z m-2381 -20 c0 -14 -13 -33 -32 -47
-18 -14 -26 -18 -19 -11 6 8 12 22 12 32 0 12 5 16 18 11 14 -6 15 -4 5 9 -7
8 -10 18 -6 21 13 14 23 6 22 -15z m1058 6 c-3 -3 -12 -4 -19 -1 -8 3 -5 6 6
6 11 1 17 -2 13 -5z m503 -2 c0 -14 -11 -21 -26 -15 -8 3 -11 9 -8 14 7 11 34
12 34 1z m289 -22 c-11 -30 -41 -41 -54 -19 -4 6 -14 8 -22 5 -10 -4 -13 0
-11 11 2 13 13 17 41 16 20 0 40 4 43 8 11 19 13 8 3 -21z m-2829 10 c0 -5
-20 -10 -45 -10 -25 0 -45 5 -45 10 0 6 20 10 45 10 25 0 45 -4 45 -10z
m-1190 -32 c0 -5 -4 -8 -10 -8 -5 0 -10 10 -10 23 0 18 2 19 10 7 5 -8 10 -18
10 -22z m810 -29 c-7 -16 -22 -37 -34 -47 -42 -35 -50 -50 -32 -67 32 -32 15
-36 -36 -8 -28 15 -53 36 -54 46 -1 9 1 17 6 17 4 0 10 9 13 20 4 17 14 20 60
20 31 0 59 5 62 10 4 6 -15 10 -49 10 -31 0 -56 5 -56 10 0 6 27 10 60 10 50
0 60 3 61 18 0 11 2 12 6 4 3 -7 -1 -26 -7 -43z m274 40 c-4 -8 9 -10 45 -8
28 2 51 2 51 -1 0 -3 -3 -16 -7 -29 -6 -23 -8 -23 -97 -19 -50 3 -74 3 -53 1
36 -4 50 -24 27 -38 -24 -15 -6 -21 44 -15 l53 6 -9 -28 c-10 -27 -13 -28 -74
-28 -35 0 -64 -4 -64 -8 0 -5 -9 -18 -20 -30 -15 -16 -18 -27 -12 -39 8 -13
22 -16 67 -14 50 2 56 0 53 -15 -3 -15 -12 -18 -56 -15 -28 1 -52 -2 -52 -7 0
-19 30 -34 60 -30 16 3 30 1 30 -4 0 -4 -16 -8 -35 -8 -28 0 -35 -4 -35 -20 0
-20 -7 -20 -475 -20 -310 0 -475 3 -475 10 0 7 153 10 440 10 408 0 465 3 430
25 -6 4 -9 14 -8 23 2 10 -5 18 -17 20 -25 5 -55 31 -55 49 0 9 13 13 40 13
l40 0 0 50 c0 39 6 58 30 93 l31 43 52 -6 c29 -3 70 -3 92 1 33 4 25 6 -47 13
-64 6 -88 12 -88 22 0 10 14 14 51 14 34 0 48 -4 43 -11z m1136 1 c0 -5 -7 -7
-15 -4 -8 4 -15 8 -15 10 0 2 7 4 15 4 8 0 15 -4 15 -10z m674 -40 c19 0 23
-4 19 -20 -6 -22 -31 -25 -98 -10 -33 7 -29 8 23 4 42 -4 62 -2 62 5 0 7 -22
11 -55 11 -30 0 -55 2 -55 5 0 3 8 17 17 32 l17 25 22 -26 c13 -15 33 -26 48
-26z m36 40 c0 -5 -12 -10 -26 -10 -14 0 -23 4 -19 10 3 6 15 10 26 10 10 0
19 -4 19 -10z m350 3 c0 -5 -5 -15 -11 -23 -9 -13 -10 -13 -6 2 3 9 1 19 -6
22 -7 2 -4 5 6 5 9 1 17 -2 17 -6z m-2981 -43 c7 -22 9 -45 6 -50 -3 -5 0 -7
7 -5 9 4 14 -3 16 -18 1 -18 -7 -28 -33 -40 -33 -16 -35 -16 -35 1 0 10 -6 24
-12 31 -11 11 -10 12 1 6 10 -6 12 -4 7 4 -4 6 -2 19 6 28 12 15 11 15 -9 4
-13 -6 -23 -17 -23 -24 -1 -17 -48 43 -59 76 l-10 27 63 0 63 0 12 -40z m3411
20 c0 -5 -4 -10 -9 -10 -6 0 -13 5 -16 10 -3 6 1 10 9 10 9 0 16 -4 16 -10z
m288 -14 c1 -2 0 -11 -4 -20 -7 -18 -44 -22 -44 -5 0 5 5 7 10 4 6 -3 16 -3
23 2 8 5 -2 12 -28 20 l-40 13 40 -6 c22 -3 41 -7 43 -8z m-3988 -6 c0 -5 -7
-10 -15 -10 -8 0 -15 5 -15 10 0 6 7 10 15 10 8 0 15 -4 15 -10z m3690 -6 c0
-2 -7 -4 -15 -4 -8 0 -15 4 -15 10 0 5 7 7 15 4 8 -4 15 -8 15 -10z m-440 -3
c0 -29 -24 -71 -41 -71 -25 0 -24 17 1 25 27 9 25 25 -2 25 -19 0 -20 -2 -8
-10 12 -8 12 -10 1 -10 -8 0 -20 -8 -27 -17 -12 -16 -12 -13 -3 15 7 21 17 32
30 32 10 0 19 5 19 10 0 6 7 10 15 10 8 0 15 -4 15 -9z m1275 -1 l-40 -6 40
-6 40 -5 -42 -1 c-24 -1 -43 -6 -43 -11 0 -6 19 -12 43 -14 l42 -4 -50 -3 -50
-3 50 -7 50 -7 -52 -1 c-33 -1 -53 -6 -53 -14 0 -6 -2 -9 -5 -6 -3 2 2 26 11
51 16 46 17 47 57 46 l42 -2 -40 -7z m-4471 -60 c33 -36 46 -167 19 -192 -17
-16 -18 -14 -15 33 3 41 1 49 -13 49 -14 0 -16 -9 -15 -57 4 -92 3 -93 -30
-93 l-30 0 0 70 c0 69 0 70 28 71 l27 2 -27 4 c-28 4 -28 5 -28 83 0 67 3 79
18 83 9 2 23 -3 30 -12 7 -9 23 -27 36 -41z m3618 18 c-8 -8 -9 -4 -5 13 4 13
8 18 11 10 2 -7 -1 -18 -6 -23z m-1192 7 c0 -8 -4 -15 -10 -15 -5 0 -7 7 -4
15 4 8 8 15 10 15 2 0 4 -7 4 -15z m-1347 -2 c-13 -2 -35 -2 -50 0 -16 2 -5 4
22 4 28 0 40 -2 28 -4z m1289 -17 c13 -19 9 -26 -15 -26 -21 0 -52 32 -41 43
8 7 48 -5 56 -17z m403 14 c4 -6 -8 -10 -29 -10 -20 0 -36 5 -36 10 0 6 13 10
29 10 17 0 33 -4 36 -10z m1145 -5 c0 -11 -12 -15 -42 -16 -38 0 -40 -1 -19
-10 14 -5 31 -7 38 -5 7 3 13 1 13 -4 0 -6 -13 -11 -30 -11 -41 -2 -47 -3 -55
-10 -12 -12 47 -20 61 -8 17 14 18 8 2 -26 -11 -25 -41 -34 -53 -15 -3 6 -1
10 6 10 10 0 10 3 2 11 -13 13 -36 3 -28 -12 4 -5 1 -9 -5 -9 -7 0 -10 6 -7
14 3 8 11 32 18 54 10 35 16 42 43 45 17 2 37 5 44 5 6 1 12 -5 12 -13z m-523
-17 c-3 -8 -6 -5 -6 6 -1 11 2 17 5 13 3 -3 4 -12 1 -19z m-1640 -41 c-13 -30
-20 -35 -62 -41 -53 -8 -56 -29 -4 -32 19 -1 26 0 17 2 -26 8 -22 24 7 24 l24
0 -17 -45 c-9 -25 -20 -45 -24 -45 -4 0 -5 -6 -2 -14 3 -8 1 -17 -5 -21 -6 -3
-11 -2 -11 4 0 5 -3 17 -7 27 -4 11 -3 15 5 10 6 -3 13 -2 17 4 3 5 -2 10 -13
10 -14 0 -25 15 -41 59 -11 32 -21 60 -21 62 0 2 30 3 67 2 45 -1 57 1 35 5
-44 9 -41 27 3 23 24 -2 35 2 36 11 0 9 2 9 5 1 3 -6 -1 -27 -9 -46z m1073 37
c0 -21 -18 -34 -46 -34 -27 0 -32 3 -27 16 5 14 1 16 -25 12 -18 -2 -32 -1
-32 4 0 4 29 7 65 6 36 -1 65 -3 65 -4z m-2477 -11 c-13 -2 -33 -2 -45 0 -13
2 -3 4 22 4 25 0 35 -2 23 -4z m2803 -12 c15 13 17 9 8 -15 -3 -9 -17 -16 -30
-16 -15 0 -24 -6 -24 -15 0 -13 4 -14 21 -5 18 10 20 9 17 -7 -2 -10 -10 -17
-18 -15 -7 2 -20 0 -29 -4 -13 -5 -11 -8 9 -14 l25 -8 -26 -1 c-15 -1 -32 -8
-39 -16 -15 -18 -10 -18 24 -5 23 8 26 7 26 -11 0 -18 -5 -20 -37 -17 -24 2
-38 -2 -41 -11 -3 -10 4 -12 31 -9 25 3 33 0 30 -9 -3 -8 -22 -13 -49 -13
l-44 0 0 38 c0 26 7 45 20 57 11 10 32 38 47 61 23 36 30 41 46 33 13 -7 23
-7 33 2z m-1812 -34 c20 -48 30 -85 18 -68 -7 9 -12 10 -16 2 -4 -6 -17 -12
-29 -12 -17 -1 -18 -2 -4 -6 26 -7 21 -23 -8 -23 -27 0 -28 1 -19 24 3 9 17
16 29 16 25 0 42 17 30 28 -4 4 -10 1 -12 -5 -3 -7 -12 -13 -20 -13 -10 0 -13
6 -9 16 3 9 6 20 6 25 0 6 4 8 9 5 4 -3 7 6 5 19 -3 34 3 31 20 -8z m3166 -7
l0 -30 -190 0 c-120 0 -190 4 -190 10 0 6 4 10 10 10 5 0 7 7 4 15 -5 12 14
15 123 18 70 1 154 4 186 5 l57 2 0 -30z m-4337 -5 c-22 -17 -30 -11 -13 10 7
8 17 12 22 9 5 -3 1 -12 -9 -19z m1857 0 c0 -18 -5 -25 -20 -25 -14 0 -18 5
-13 18 6 14 22 31 31 32 1 0 2 -11 2 -25z m780 18 c0 -11 -33 -43 -44 -43 -6
0 -4 5 4 11 11 8 12 12 3 16 -22 8 -14 23 12 23 14 0 25 -3 25 -7z m570 -8
c-8 -10 -9 -15 -2 -15 6 0 9 -6 6 -13 -3 -8 -11 -14 -18 -14 -11 0 -12 7 -4
29 6 15 15 28 20 28 6 0 5 -6 -2 -15z m-2320 -5 c0 -6 -27 -10 -61 -10 -37 0
-58 4 -54 10 3 6 31 10 61 10 30 0 54 -4 54 -10z m1350 -10 c0 -5 -9 -10 -20
-10 -11 0 -20 5 -20 10 0 6 9 10 20 10 11 0 20 -4 20 -10z m300 -10 c0 -5 -4
-10 -10 -10 -5 0 -10 5 -10 10 0 6 5 10 10 10 6 0 10 -4 10 -10z m-1687 -7
c-18 -2 -48 -2 -65 0 -18 2 -4 4 32 4 36 0 50 -2 33 -4z m-913 -6 c0 -2 -9
-12 -19 -21 -19 -17 -19 -17 -14 3 3 12 12 21 19 21 8 0 14 -2 14 -3z m2260
-13 c0 -2 -9 -4 -20 -4 -11 0 -20 4 -20 9 0 5 9 7 20 4 11 -3 20 -7 20 -9z
m1443 6 c-13 -5 -23 -15 -23 -21 0 -7 -2 -10 -5 -7 -12 11 9 38 29 37 21 0 21
0 -1 -9z m-2773 -10 c0 -6 -26 -9 -62 -8 l-63 1 60 7 c33 4 61 7 63 8 1 1 2
-2 2 -8z m990 1 c0 -5 -11 -11 -25 -13 -17 -4 -25 -1 -25 8 0 8 11 14 25 14
14 0 25 -4 25 -9z m377 3 c-3 -3 -12 -4 -19 -1 -8 3 -5 6 6 6 11 1 17 -2 13
-5z m2083 0 c-60 -8 -128 -8 -123 -1 2 4 37 6 76 6 40 -1 61 -3 47 -5z m-1085
-15 c25 -7 23 -7 -12 -4 -42 5 -61 -9 -25 -18 11 -3 7 -5 -10 -6 -21 -1 -25 3
-21 19 6 21 19 23 68 9z m455 -24 c0 -17 -12 -18 -61 -8 l-34 7 35 7 c56 10
60 10 60 -6z m580 8 c-43 -3 -78 -9 -82 -16 -5 -8 -8 -8 -8 -1 0 21 14 24 89
22 l76 -2 -75 -3z m-2380 -22 c0 -5 -8 -7 -19 -4 -10 3 -22 0 -25 -6 -5 -7 3
-11 18 -11 17 0 26 -6 26 -15 0 -12 -11 -15 -55 -13 -57 3 -62 7 -45 39 8 14
21 19 55 19 25 0 45 -4 45 -9z m378 -3 c7 -7 12 -29 12 -50 0 -30 -4 -38 -17
-38 -18 1 -67 83 -56 94 11 10 49 6 61 -6z m920 -5 c-32 -5 -38 -23 -8 -23 11
0 20 -6 20 -14 0 -17 83 -26 236 -26 102 0 116 2 135 21 12 12 29 19 42 16 21
-3 20 -4 -6 -15 -15 -6 -30 -19 -33 -27 -5 -13 -54 -15 -370 -15 -285 0 -364
3 -364 13 0 9 31 11 127 9 71 -2 137 -1 148 2 11 3 25 19 32 36 9 24 17 30 40
29 l28 -2 -27 -4z m442 3 c0 -2 -9 -6 -20 -9 -11 -3 -20 -1 -20 4 0 5 9 9 20
9 11 0 20 -2 20 -4z m-2410 -16 c0 -5 -6 -7 -13 -5 -7 3 -34 1 -60 -4 -37 -7
-47 -6 -47 5 0 10 16 14 60 14 33 0 60 -4 60 -10z m2454 -1 c-4 -7 -7 -25 -6
-40 1 -26 -3 -29 -29 -29 -36 0 -40 26 -5 39 13 5 26 17 29 25 4 9 9 16 12 16
4 0 3 -5 -1 -11z m624 -26 c-27 -2 -69 -2 -95 0 -27 2 -5 3 47 3 52 0 74 -1
48 -3z m-3059 -16 c18 -22 2 -27 -81 -27 -61 0 -78 3 -78 14 0 14 13 17 121
24 15 1 32 -4 38 -11z m605 -3 c67 -10 57 -22 -19 -23 -60 -1 -75 5 -58 22 8
9 18 9 77 1z m2496 -9 c0 -12 -17 -15 -94 -15 -87 0 -116 7 -99 24 3 3 48 6
100 6 76 0 93 -3 93 -15z"/>
<path d="M1045 1030 c3 -5 44 -10 91 -10 49 0 84 4 84 10 0 6 -37 10 -91 10
-57 0 -88 -4 -84 -10z"/>
<path d="M1138 973 c-77 -5 -75 -23 2 -23 47 0 60 3 60 15 0 8 -1 14 -2 13 -2
-1 -29 -3 -60 -5z"/>
<path d="M3343 863 c9 -2 23 -2 30 0 6 3 -1 5 -18 5 -16 0 -22 -2 -12 -5z"/>
<path d="M4068 903 c6 -2 18 -2 25 0 6 3 1 5 -13 5 -14 0 -19 -2 -12 -5z"/>
<path d="M801 704 c0 -5 4 -18 8 -28 6 -17 8 -17 14 -3 3 8 -1 21 -9 27 -8 7
-14 9 -13 4z"/>
<path d="M283 763 c15 -2 37 -2 50 0 12 2 0 4 -28 4 -27 0 -38 -2 -22 -4z"/>
<path d="M1777 609 c8 -8 25 -9 60 -1 l48 10 -59 1 c-44 1 -57 -2 -49 -10z"/>
</g>
</svg>
