<?xml version="1.0" encoding="utf-8"?>
<!-- Generator: Adobe Illustrator 14.0.0, SVG Export Plug-In . SVG Version: 6.00 Build 43363)  -->
<!DOCTYPE svg PUBLIC "-//W3C//DTD SVG 1.1//EN" "http://www.w3.org/Graphics/SVG/1.1/DTD/svg11.dtd">
<svg version="1.1" id="Ebene_1" xmlns="http://www.w3.org/2000/svg" xmlns:xlink="http://www.w3.org/1999/xlink" x="0px" y="0px"
	 width="1024px" height="169px" viewBox="0 0 1024 169" enable-background="new 0 0 1024 169" xml:space="preserve">
<path fill="#FFFFFF" d="M941.649,3.731H113.952c-7.226-1.679-14.941-2.483-22.823-2.483c-9.271,0-18.756,1.584-27.382,4.784
	C27.412,14.705,0.402,47.149,0.402,85.866c0,39.497,28.092,72.468,65.52,80.337c8.792,2.69,18.389,4.003,28.157,4.003
	c8.225,0,15.716-0.769,22.486-2.205h825.084c45.694,0,82.756-36.771,82.756-82.135C1024.405,40.509,987.344,3.731,941.649,3.731"/>
<path fill="#014688" d="M627.478,63.805c-6.066-0.201-7.427,3.4-7.427,3.4l-16.188,46.25c-0.226,0.799-0.355,1.313-0.344,1.455
	c0.106,1.602,0.911,4.398,6.978,4.6c6.066,0.207,7.427-3.399,7.427-3.399l16.308-46.232c0,0,0.236-1.325,0.236-1.473
	C634.349,66.803,633.532,64,627.478,63.805"/>
<path fill="#014688" d="M1024.405,85.866c0-19.27-6.705-36.979-17.904-50.986l-40.703,115.879c0,0-2.011,7.965,3.027,10.33
	c1.702,0.691,3.571,0.656,5.345,0.308C1003.711,148.855,1024.405,119.765,1024.405,85.866"/>
<polyline fill="#014688" points="561.006,43.376 576.024,3.731 548.399,3.731 534.765,43.371 561.006,43.376 "/>
<path fill="#014688" d="M936.742,157.104l7.675-23.036c-5.015,6.368-14.31,6.965-21.594,6.782
	c-5.57-0.604-11.199-3.193-14.298-8.414c-2.223-3.01-3.417-7.888-2.058-12.086l19.985-57.354
	c3.453-9.531,12.725-18.395,22.871-19.459c0,0,15.397-1.939,24.172,8.502l12.57-35.453c-12.843-8.124-28.063-12.854-44.417-12.854
	H767.269l-48.532,136.964v-0.018h-26.832L740.46,3.731h-14.688l-48.544,136.964v-0.018h-26.833L698.952,3.731h-96.096
	l-48.792,136.947l-27.152-0.006l26.028-74.241h-26.253l-37.141,101.57h446.699C935.086,161.981,936.742,157.104,936.742,157.104
	 M618.987,140.637c0,0-17.515,0.029-26.313-0.054c-5.582,0.06-11.211-3.192-14.297-8.396c-1.774-3.075-3.3-7.936-2.069-12.092
	l19.984-57.361c3.453-9.525,12.725-18.389,22.871-19.453h24.302c8.148,0.964,15.279,4.79,18.117,14.404
	c0.958,3.069,0.544,6.279-0.036,9.041c-6.692,20.104-13.517,39.989-21.167,59.655C636.264,135.865,625.964,140.643,618.987,140.637z
	 M776.091,140.689l2.436-6.87c-5.014,6.368-14.32,6.959-21.594,6.775c-5.581-0.603-11.198-3.192-14.297-8.401
	c-1.454-3.637-2.98-8.071-2.058-12.086l19.985-57.36c3.453-9.532,12.725-18.389,22.871-19.454c0,0,15.396-1.951,24.171,8.503
	l3.099-8.822l26.832,0.053l-34.613,97.673v-0.012H776.091z M860.041,140.66l25.224-71.421c0,0,1.573-4.34-5.594-5.174
	c-6.374-0.745-8.289,3.477-8.372,3.678c-0.556,1.39-25.887,72.899-25.887,72.899l-26.82-0.018l34.791-97.574h26.762l-1.349,4.529
	c0,0,11.85-8.443,24.526-2.472c12.653,5.972,9.177,21.41,9.177,21.41l-25.91,74.141H860.041z"/>
<path fill="#014688" d="M791.7,64.326c-6.066-0.207-7.427,3.4-7.427,3.4l-16.188,46.25c-0.237,0.798-0.367,1.307-0.355,1.448
	c0.118,1.614,0.923,4.405,6.989,4.606c6.055,0.201,7.415-3.399,7.415-3.399l16.308-46.239c0,0,0.248-1.324,0.236-1.466
	C798.56,67.317,797.755,64.521,791.7,64.326"/>
<path fill="#014688" d="M948.035,116.879l16.308-46.232c0,0,0.379-1.331,0.402-1.472c0.213-0.976-1.1-4.405-7.167-4.601
	c-6.055-0.201-7.426,3.4-7.426,3.4l-16.178,46.244c-0.236,0.805-0.354,1.313-0.354,1.455c0.118,1.614,0.922,4.41,6.977,4.611
	C946.664,120.485,948.035,116.879,948.035,116.879"/>
<path fill="#E0041D" d="M24.409,112.864h34.625c0,21.475,16.869,29.848,35.997,29.848c12.529,0,31.663-3.619,31.663-20.127
	c0-17.401-24.367-20.347-48.302-26.685C54.25,89.573,29.872,80.296,29.872,49.999c0-22.049,14.037-36.423,32.112-43.542
	C26.537,15.746,0.402,47.775,0.402,85.872c0,38.628,26.88,71.007,63.084,79.77C40.888,158.073,24.095,141.021,24.409,112.864"/>
<polyline fill="#E0041D" points="262.914,55.403 251.195,3.731 245.696,3.731 233.705,55.362 262.914,55.403 "/>
<polyline fill="#E0041D" points="213.826,116.382 198.086,168.001 296.02,168.001 282.497,116.382 213.826,116.382 "/>
<path fill="#E0041D" d="M281.61,3.731l25.059,74.833H190.133l26.058-74.833H113.905c23.734,5.641,41.963,20.932,41.963,49.425
	h-34.625c-1.147-19.441-15.042-24.408-32.136-24.408c-11.394,0-24.609,4.742-24.609,18.306c0,12.435,7.751,14.025,48.544,24.426
	c11.837,2.933,48.29,10.401,48.29,47.031c0,24.006-15.42,43.104-44.79,49.49h43.625l26.406-75.134h124.731l22.51,75.134h11.057
	V3.731H281.61"/>
<polyline fill="#E0041D" points="457.446,3.731 457.446,34.365 379.757,34.365 379.757,71.752 447.223,71.752 447.223,99.927 
	379.757,99.927 379.757,168.001 461.821,168.001 520.775,3.731 457.446,3.731 "/>
</svg>
