<?xml version="1.0" standalone="no"?>
<!DOCTYPE svg PUBLIC "-//W3C//DTD SVG 20010904//EN"
 "http://www.w3.org/TR/2001/REC-SVG-20010904/DTD/svg10.dtd">
<svg version="1.0" xmlns="http://www.w3.org/2000/svg"
 width="48.000000pt" height="48.000000pt" viewBox="0 0 48.000000 48.000000"
 preserveAspectRatio="xMidYMid meet">

<g transform="translate(0.000000,48.000000) scale(0.100000,-0.100000)"
fill="#000000" stroke="none">
<path d="M142 443 c-46 -22 -110 -99 -118 -139 -3 -19 -4 -61 -2 -93 5 -66 31
-109 95 -158 50 -39 159 -45 221 -14 23 12 42 26 42 31 0 6 -33 10 -75 10 -70
0 -75 1 -75 22 0 13 27 49 69 93 70 72 92 115 74 144 -24 39 -83 14 -83 -35 0
-20 -5 -24 -30 -24 -28 0 -30 3 -30 35 0 51 44 96 101 104 l44 6 -37 18 c-47
22 -151 22 -196 0z"/>
<path d="M437 275 c-10 -22 -39 -61 -65 -87 l-46 -48 61 0 c62 0 62 0 68 33 4
17 5 57 3 87 l-3 55 -18 -40z"/>
</g>
</svg>
