<?xml version="1.0" standalone="no"?>
<!DOCTYPE svg PUBLIC "-//W3C//DTD SVG 20010904//EN"
 "http://www.w3.org/TR/2001/REC-SVG-20010904/DTD/svg10.dtd">
<svg version="1.0" xmlns="http://www.w3.org/2000/svg"
 width="400.000000pt" height="250.000000pt" viewBox="0 0 2400.000000 2400.000000"
 preserveAspectRatio="xMidYMid meet">
<g transform="translate(0.000000,2400.000000) scale(0.100000,-0.100000)"
fill="#000000" stroke="none">
<path d="M9275 12029 c-715 -1393 -1301 -2536 -1303 -2540 -2 -5 630 -9 1425
-9 l1428 1 815 1543 c448 850 818 1541 821 1538 12 -13 731 -1423 727 -1427
-2 -2 -266 -7 -588 -12 l-584 -8 -382 -815 c-210 -448 -381 -816 -379 -818 2
-2 596 -8 1322 -13 725 -5 1950 -13 2722 -19 773 -5 1406 -8 1408 -7 1 2 -366
788 -818 1748 -451 959 -992 2110 -1202 2556 l-382 813 -1865 0 -1865 0 -1300
-2531z"/>
<path d="M350 12005 l0 -2525 2948 2 2947 3 118 23 c380 73 673 174 941 325
667 373 1095 996 1211 1757 23 149 30 438 16 590 -61 628 -320 1176 -757 1600
-402 390 -900 629 -1516 730 -121 20 -169 20 -3015 20 l-2893 0 0 -2525z
m4636 942 c247 -183 395 -484 420 -852 17 -257 -58 -556 -190 -752 -54 -81
-169 -196 -241 -242 l-49 -31 -833 0 -833 0 0 960 0 960 834 0 834 0 58 -43z"/>
<path d="M17000 11985 l0 -2535 1391 0 1392 0 -7 585 -8 585 1901 0 1901 0 0
825 0 825 -1910 0 -1910 0 0 298 0 299 1352 6 c743 4 1621 7 1950 7 l598 0 0
820 0 820 -3325 0 -3325 0 0 -2535z"/>
</g>
</svg>
