<svg version="1.1" id="Слой_1" xmlns="http://www.w3.org/2000/svg" xmlns:xlink="http://www.w3.org/1999/xlink" x="0px" y="0px"
	 width="149px" height="66px" viewBox="23 0 149 66" enable-background="new 23 0 149 66" xml:space="preserve">
<title>-g-2GIS Copy</title>
<g>
	<path fill="#aa" d="M89,33c0-4-0.6-7.3-1.8-11C86.8,33.7,74,43.5,67,49.5h18.3C87.2,44,89,38.7,89,33 M76.2,7.3
		C70.7,2.9,63.7,0,56,0C37.8,0,23,14.9,23,33s14.8,33,33,33c8.4,0,16.1-4,22-9.2H54.2v-7.3C68.7,37,78,29.3,78,22
		c0-3.1-2.2-7.3-7.3-7.3c-4,0-7.3,3.7-7.3,12.8h-9.2c-2-11.6,5-21.1,16.9-21.1C72.9,6.4,74.5,7,76.2,7.3"/>
	<path fill="#aa" d="M122,25.7h3.7c0-5.5-1.8-14.1-12.8-14.5c-12.8-0.6-16.5,7.2-16.5,16.3v14.7c0,12.1,9.3,14.7,16.5,14.7
		c4.2,0,9.2-2.4,12.8-5.5V33H111v7.3h7.3v7.3c-3.7,3.7-14.7,3.7-14.7-7.3V25.7c0-11,16.1-11.4,15.2,0H122z M171.5,44
		c0-16-18.9-11.2-18.9-20.9c0-3.3,2.2-5.5,5.9-5.5c3.9,0,6.1,2.8,6.1,8.2h7c0-5.5-1.8-14.7-12.8-14.7c-7.5,0-13.2,3.9-13.2,11.9
		c0,16.7,19.4,11.2,19.1,21.1c-0.2,4-3.1,5.7-6.4,5.7c-3.9,0-7.3-2-6.6-9.3h-7.2c-0.7,9.2,3.9,16.5,14.5,16.5
		c7.3,0,12.8-5.9,12.8-14.7L171.5,44z M138.5,55h-7.3V11h7.3V55z"/>
</g>
</svg>