<?xml version="1.0" standalone="no"?>
<!DOCTYPE svg PUBLIC "-//W3C//DTD SVG 20010904//EN"
 "http://www.w3.org/TR/2001/REC-SVG-20010904/DTD/svg10.dtd">
<svg version="1.0" xmlns="http://www.w3.org/2000/svg"
 width="264.000000pt" height="354.000000pt" viewBox="0 0 264.000000 354.000000"
 preserveAspectRatio="xMidYMid meet">

<g transform="translate(0.000000,354.000000) scale(0.100000,-0.100000)"
fill="#000000" stroke="none">
<path d="M0 1770 l0 -1770 1320 0 1320 0 0 1770 0 1770 -112 0 -113 -1 37 -23
c21 -12 35 -26 30 -31 -4 -4 -2 -5 5 -2 18 11 82 -59 111 -121 l27 -57 3 -312
c2 -246 0 -313 -10 -313 -7 0 -145 23 -306 50 -162 28 -296 49 -298 47 -2 -2
1 -50 6 -108 15 -151 -15 -374 -69 -511 l-11 -28 -107 0 c-93 0 -115 -4 -160
-24 -126 -59 -176 -215 -190 -590 -6 -172 -6 -178 13 -173 10 4 163 36 339 72
360 73 394 83 485 133 150 82 256 232 286 403 8 45 16 85 19 87 3 3 5 -81 5
-185 0 -105 -3 -193 -7 -195 -5 -1 -26 -27 -48 -56 -65 -87 -183 -167 -300
-205 -27 -9 -327 -73 -665 -141 -338 -69 -694 -141 -790 -160 -96 -20 -177
-36 -181 -36 -6 0 -2 -28 16 -107 5 -22 2 -23 -54 -23 l-58 0 -7 50 c-6 43
-10 50 -29 50 -26 -1 -297 -58 -280 -59 6 -1 19 -8 27 -17 9 -8 16 -12 16 -7
0 5 16 7 35 5 19 -2 35 -8 35 -13 0 -17 -74 -6 -128 19 -57 27 -145 98 -121
99 42 2 229 48 259 63 69 36 112 108 112 190 0 42 -389 1930 -412 1996 -8 24
-7 39 4 65 18 40 64 95 78 91 5 -1 7 2 4 7 -6 10 40 44 52 38 4 -2 15 4 25 15
16 17 13 18 -98 18 l-115 0 0 -1770z m31 1509 c-5 -13 -10 -19 -10 -12 -1 15
10 45 15 40 3 -2 0 -15 -5 -28z m2588 -2107 c-14 -53 -54 -122 -70 -122 -5 0
-7 -5 -4 -10 4 -6 1 -9 -6 -8 -7 2 -13 -3 -14 -9 0 -13 -45 -49 -45 -37 0 4
-6 0 -13 -11 -8 -10 -19 -15 -25 -11 -7 4 -12 3 -12 -2 0 -14 -48 -32 -85 -32
-19 0 -35 5 -35 11 0 7 15 10 40 7 22 -2 40 -1 40 3 0 8 51 31 57 25 8 -7 114
97 131 129 22 41 41 96 43 120 0 12 3 15 6 7 3 -8 -1 -35 -8 -60z m-2592 26
c-3 -8 -6 -5 -6 6 -1 11 2 17 5 13 3 -3 4 -12 1 -19z m26 -78 c-7 -8 -23 24
-22 45 0 15 3 13 13 -10 7 -16 11 -32 9 -35z m25 -30 c7 -11 8 -20 2 -20 -5 0
-14 9 -20 20 -6 11 -7 20 -3 20 5 0 14 -9 21 -20z"/>
<path d="M1230 3203 c-156 -26 -328 -143 -410 -279 -63 -104 -79 -172 -80
-320 0 -120 20 -285 40 -340 7 -19 19 -22 95 -26 203 -13 318 -129 371 -374
12 -56 19 -149 23 -319 l6 -240 45 0 45 0 6 185 c10 292 27 403 84 528 64 139
169 210 327 220 76 4 77 5 87 36 39 119 53 386 26 491 -54 212 -235 385 -450
430 -66 14 -160 17 -215 8z"/>
<path d="M220 3071 c0 -5 52 -263 116 -573 63 -309 133 -651 155 -758 71 -350
109 -535 114 -556 5 -21 8 -21 281 35 l276 56 -5 245 c-6 252 -16 336 -55 438
-29 76 -67 121 -126 148 -44 21 -66 24 -163 24 l-111 0 -16 48 c-39 119 -58
222 -63 352 -7 167 10 268 66 386 l38 81 -246 42 c-273 46 -261 45 -261 32z"/>
</g>
</svg>
