<?xml version="1.0" standalone="no"?>
<!DOCTYPE svg PUBLIC "-//W3C//DTD SVG 20010904//EN"
 "http://www.w3.org/TR/2001/REC-SVG-20010904/DTD/svg10.dtd">
<svg version="1.0" xmlns="http://www.w3.org/2000/svg"
 width="400.000000pt" height="200.000000pt" viewBox="0 0 400.000000 200.000000"
 preserveAspectRatio="xMidYMid meet">
<g transform="translate(0.000000,200.000000) scale(0.100000,-0.100000)"
fill="#000000" stroke="none">
<path d="M0 1015 l0 -985 165 0 165 0 0 985 0 985 -165 0 -165 0 0 -985z"/>
<path d="M425 1948 c16 -142 48 -436 71 -643 14 -126 36 -327 49 -445 13 -118
33 -296 44 -394 24 -212 26 -221 58 -295 32 -72 87 -140 129 -157 41 -17 187
-19 217 -2 31 16 67 51 67 66 0 6 4 12 8 12 11 0 37 59 57 130 8 31 24 139 36
240 11 102 31 279 44 395 13 116 38 336 55 490 17 154 40 357 50 450 11 94 20
178 20 188 0 15 -12 17 -108 17 l-108 0 -22 -202 c-28 -256 -75 -672 -101
-893 -12 -93 -21 -184 -21 -201 0 -17 -7 -49 -16 -70 -31 -75 -30 -85 -128
796 -14 124 -32 281 -41 350 -8 69 -18 146 -21 173 l-6 47 -170 0 -169 0 6
-52z"/>
<path d="M1489 1969 c-16 -17 -29 -37 -29 -45 0 -8 -3 -14 -8 -14 -10 0 -30
-67 -42 -147 -7 -46 -10 -311 -7 -794 3 -780 4 -790 57 -861 11 -15 20 -32 20
-37 0 -5 9 -13 20 -16 11 -3 20 -11 20 -16 0 -5 119 -9 295 -9 l295 0 0 240 0
240 -169 0 c-144 0 -171 2 -182 17 -22 26 -25 212 -5 252 l17 31 129 0 130 0
0 210 0 210 -135 0 -135 0 -11 28 c-15 39 -8 235 10 255 12 15 38 17 187 17
l174 0 0 235 0 235 -301 0 -301 0 -29 -31z"/>
<path d="M2487 1986 c-67 -24 -146 -129 -186 -246 -13 -36 -27 -72 -31 -81
-17 -32 -59 -257 -70 -365 -13 -139 -13 -407 0 -549 18 -195 69 -396 135 -529
33 -68 111 -152 149 -162 14 -3 26 -10 26 -15 0 -5 94 -9 210 -9 l210 0 0 240
0 240 -125 0 c-68 0 -135 5 -147 11 -34 15 -73 91 -97 188 -18 72 -21 114 -21
307 0 281 21 392 91 474 l30 35 134 3 135 4 0 234 0 234 -202 0 c-144 -1 -214
-5 -241 -14z"/>
<path d="M3280 1987 c-102 -37 -201 -212 -254 -450 -50 -220 -61 -629 -25
-879 32 -227 89 -407 155 -495 13 -17 24 -36 24 -42 0 -6 4 -11 9 -11 4 0 19
-11 33 -24 13 -14 36 -28 51 -31 15 -4 27 -11 27 -16 0 -5 87 -9 195 -9 108 0
195 4 195 9 0 5 12 12 26 15 32 9 105 83 138 142 57 103 113 293 136 467 15
120 12 623 -5 737 -40 263 -106 439 -205 539 -22 22 -56 45 -77 50 -55 15
-379 13 -423 -2z m238 -463 c39 -8 82 -67 113 -159 23 -67 24 -80 24 -350 -1
-279 -1 -280 -28 -358 -43 -124 -109 -173 -180 -135 -40 21 -73 81 -98 178
-20 77 -20 562 0 640 20 81 68 167 100 179 33 12 33 12 69 5z"/>
</g>
</svg>
